<svg width="20" height="16" viewBox="0 0 20 16" fill="none" xmlns="http://www.w3.org/2000/svg">
<path d="M8.67311 15.3116V9.76975L10.0346 5.88078C10.0795 5.80001 10.1331 5.73558 10.1952 5.6875C10.2574 5.63942 10.3539 5.61538 10.4847 5.61538H17.6308C17.7427 5.61538 17.8387 5.63942 17.9186 5.6875C17.9985 5.73558 18.0526 5.80001 18.0808 5.88078L19.4423 9.76975V15.3116C19.4423 15.4298 19.402 15.5292 19.3214 15.6098C19.2408 15.6905 19.1414 15.7308 19.0231 15.7308H18.8616C18.7433 15.7308 18.6439 15.6905 18.5633 15.6098C18.4826 15.5292 18.4423 15.4298 18.4423 15.3116V14.0385H9.67311V15.3116C9.67311 15.4298 9.63281 15.5292 9.55219 15.6098C9.47157 15.6905 9.37214 15.7308 9.25389 15.7308H9.09234C8.9741 15.7308 8.87467 15.6905 8.79404 15.6098C8.71342 15.5292 8.67311 15.4298 8.67311 15.3116ZM9.90389 8.96152H18.2116L17.3577 6.5H10.7577L9.90389 8.96152ZM11.1347 12.3077C11.3853 12.3077 11.5954 12.2229 11.7649 12.0534C11.9345 11.8838 12.0193 11.6737 12.0193 11.4231C12.0193 11.1724 11.9345 10.9623 11.7649 10.7928C11.5954 10.6232 11.3853 10.5385 11.1347 10.5385C10.884 10.5385 10.6739 10.6232 10.5044 10.7928C10.3348 10.9623 10.25 11.1724 10.25 11.4231C10.25 11.6737 10.3348 11.8838 10.5044 12.0534C10.6739 12.2229 10.884 12.3077 11.1347 12.3077ZM16.9808 12.3077C17.2314 12.3077 17.4415 12.2229 17.6111 12.0534C17.7806 11.8838 17.8654 11.6737 17.8654 11.4231C17.8654 11.1724 17.7806 10.9623 17.6111 10.7928C17.4415 10.6232 17.2314 10.5385 16.9808 10.5385C16.7302 10.5385 16.5201 10.6232 16.3505 10.7928C16.181 10.9623 16.0962 11.1724 16.0962 11.4231C16.0962 11.6737 16.181 11.8838 16.3505 12.0534C16.5201 12.2229 16.7302 12.3077 16.9808 12.3077ZM2.55774 15.5V15.1923L4.25004 13.5C3.31414 13.5 2.46478 13.2949 1.70196 12.8846C0.939148 12.4744 0.557739 11.8462 0.557739 11V2.5C0.557739 1.82308 1.05581 1.32052 2.05196 0.9923C3.04811 0.6641 4.55004 0.5 6.55774 0.5C8.58851 0.5 10.0962 0.662175 11.0808 0.986525C12.0654 1.31089 12.5577 1.81538 12.5577 2.5V3.84615H11.5577V2.5H1.55774V9.5H6.90389V15.5H2.55774ZM3.05774 11.8846C3.30837 11.8846 3.51846 11.7999 3.68801 11.6303C3.85756 11.4607 3.94234 11.2506 3.94234 11C3.94234 10.7494 3.85756 10.5393 3.68801 10.3697C3.51846 10.2002 3.30837 10.1154 3.05774 10.1154C2.80709 10.1154 2.59699 10.2002 2.42744 10.3697C2.25789 10.5393 2.17311 10.7494 2.17311 11C2.17311 11.2506 2.25789 11.4607 2.42744 11.6303C2.59699 11.7999 2.80709 11.8846 3.05774 11.8846ZM9.55774 13.1538H18.5577V9.84615H9.55774V13.1538Z" fill="#FAFAFA"/>
</svg>
