<svg width="44" height="44" viewBox="0 0 44 44" fill="none" xmlns="http://www.w3.org/2000/svg">
<rect width="44" height="44" rx="8" fill="#FAFAFA" fill-opacity="0.08"/>
<path d="M27.02 11.5H16.98C13.9535 11.5 11.5 13.9535 11.5 16.98V27.02C11.5 30.0465 13.9535 32.5 16.98 32.5H27.02C30.0465 32.5 32.5 30.0465 32.5 27.02V16.98C32.5 13.9535 30.0465 11.5 27.02 11.5Z" stroke="#FAFAFA" stroke-linecap="round" stroke-linejoin="round"/>
<path d="M22 27.5C25.0376 27.5 27.5 25.0376 27.5 22C27.5 18.9624 25.0376 16.5 22 16.5C18.9624 16.5 16.5 18.9624 16.5 22C16.5 25.0376 18.9624 27.5 22 27.5Z" stroke="#FAFAFA" stroke-linecap="round" stroke-linejoin="round"/>
<path d="M28 15.5C28.2761 15.5 28.5 15.2761 28.5 15C28.5 14.7239 28.2761 14.5 28 14.5C27.7239 14.5 27.5 14.7239 27.5 15C27.5 15.2761 27.7239 15.5 28 15.5Z" stroke="#FAFAFA" stroke-linecap="round" stroke-linejoin="round"/>
</svg>
