<svg width="19" height="20" viewBox="0 0 19 20" fill="none" xmlns="http://www.w3.org/2000/svg">
<path d="M1 7.61538H15V4.61538C15 4.46154 14.9359 4.32052 14.8077 4.1923C14.6795 4.0641 14.5385 4 14.3846 4H1.61538C1.46154 4 1.32052 4.0641 1.1923 4.1923C1.0641 4.32052 1 4.46154 1 4.61538V7.61538ZM1.61538 19C1.15513 19 0.770833 18.8458 0.4625 18.5375C0.154167 18.2292 0 17.8449 0 17.3846V4.61538C0 4.15513 0.154167 3.77083 0.4625 3.4625C0.770833 3.15417 1.15513 3 1.61538 3H3.3846V0.769226H4.46153V3H11.6154V0.769226H12.6154V3H14.3846C14.8449 3 15.2292 3.15417 15.5375 3.4625C15.8458 3.77083 16 4.15513 16 4.61538V9.8673C15.8372 9.80705 15.6724 9.76219 15.5058 9.7327C15.3391 9.7032 15.1705 9.67628 15 9.65193V8.61538H1V17.3846C1 17.5385 1.0641 17.6795 1.1923 17.8077C1.32052 17.9359 1.46154 18 1.61538 18H8.31923C8.37179 18.1872 8.43878 18.3609 8.52018 18.5212C8.60159 18.6814 8.68653 18.841 8.775 19H1.61538ZM14.3846 20C13.2705 20 12.3253 19.6119 11.549 18.8356C10.7727 18.0593 10.3846 17.1141 10.3846 16C10.3846 14.8859 10.7727 13.9407 11.549 13.1644C12.3253 12.3881 13.2705 12 14.3846 12C15.4987 12 16.4439 12.3881 17.2202 13.1644C17.9965 13.9407 18.3846 14.8859 18.3846 16C18.3846 17.1141 17.9965 18.0593 17.2202 18.8356C16.4439 19.6119 15.4987 20 14.3846 20ZM16.0404 18.2019L16.5865 17.6558L14.7692 15.8385V13.1154H14V16.1616L16.0404 18.2019Z" fill="#FAFAFA"/>
</svg>
