<svg width="12" height="20" viewBox="0 0 12 20" fill="none" xmlns="http://www.w3.org/2000/svg">
<path d="M6 19.5C4.38718 19.5 3.06731 19.2689 2.04037 18.8067C1.01346 18.3446 0.5 17.7423 0.5 17C0.5 16.609 0.66795 16.2513 1.00385 15.9269C1.33975 15.6026 1.80449 15.3218 2.39808 15.0846L2.68463 16.0423C2.33719 16.1898 2.06603 16.3452 1.87115 16.5086C1.67628 16.6721 1.55642 16.8359 1.51155 17C1.62565 17.4461 2.10962 17.8077 2.96347 18.0846C3.81731 18.3615 4.82948 18.5 6 18.5C7.15768 18.5 8.16762 18.3615 9.0298 18.0846C9.89198 17.8077 10.3801 17.4461 10.4942 17C10.4494 16.8359 10.3295 16.6753 10.1346 16.5183C9.93973 16.3612 9.66858 16.2026 9.32115 16.0423L9.62693 15.0846C10.2205 15.3218 10.6811 15.6026 11.0087 15.9269C11.3362 16.2513 11.5 16.609 11.5 17C11.5 17.7423 10.9865 18.3446 9.95963 18.8067C8.93269 19.2689 7.61282 19.5 6 19.5ZM6 14.3634C6.3 13.775 6.65512 13.1747 7.06537 12.5625C7.47564 11.9503 7.8968 11.3654 8.32885 10.8077C8.97115 9.96923 9.48525 9.20673 9.87115 8.5202C10.257 7.83365 10.45 6.97692 10.45 5.95C10.45 4.7218 10.0154 3.67308 9.14615 2.80385C8.27692 1.93462 7.2282 1.5 6 1.5C4.7718 1.5 3.72308 1.93462 2.85385 2.80385C1.98462 3.67308 1.55 4.7218 1.55 5.95C1.55 6.97692 1.74616 7.83365 2.13848 8.5202C2.53078 9.20673 3.04167 9.96923 3.67115 10.8077C4.1032 11.3654 4.52436 11.9503 4.93463 12.5625C5.34488 13.1747 5.7 13.775 6 14.3634ZM6 15.8846C5.85513 15.8846 5.72052 15.8305 5.59615 15.7221C5.4718 15.6138 5.37629 15.4808 5.30963 15.3231C4.87501 14.268 4.38526 13.3821 3.84037 12.6654C3.29551 11.9487 2.77372 11.2622 2.275 10.6058C1.79295 9.94936 1.38493 9.26795 1.05095 8.56155C0.716983 7.85513 0.55 6.98462 0.55 5.95C0.55 4.42435 1.07692 3.13461 2.13077 2.08078C3.18461 1.02693 4.47435 0.5 6 0.5C7.52565 0.5 8.81539 1.02693 9.86922 2.08078C10.9231 3.13461 11.45 4.42435 11.45 5.95C11.45 6.98462 11.2872 7.85513 10.9615 8.56155C10.6359 9.26795 10.2237 9.94936 9.725 10.6058C9.24295 11.2622 8.72533 11.9487 8.17213 12.6654C7.61891 13.3821 7.12499 14.268 6.69037 15.3231C6.62371 15.4808 6.5282 15.6138 6.40385 15.7221C6.27948 15.8305 6.14487 15.8846 6 15.8846ZM6 7.47885C6.42948 7.47885 6.79167 7.33142 7.08655 7.03655C7.38142 6.74167 7.52885 6.37948 7.52885 5.95C7.52885 5.52052 7.38142 5.15833 7.08655 4.86345C6.79167 4.56858 6.42948 4.42115 6 4.42115C5.57052 4.42115 5.20833 4.56858 4.91345 4.86345C4.61858 5.15833 4.47115 5.52052 4.47115 5.95C4.47115 6.37948 4.61858 6.74167 4.91345 7.03655C5.20833 7.33142 5.57052 7.47885 6 7.47885Z" fill="#FAFAFA"/>
</svg>
