<svg width="36" height="32" viewBox="0 0 36 32" fill="none" xmlns="http://www.w3.org/2000/svg">
<rect width="36" height="32" rx="4" fill="#005A44"/>
<path d="M16.2051 26C13.453 23.7167 11.3974 21.5958 10.0385 19.6375C8.67949 17.6792 8 15.8667 8 14.2C8 11.7 8.82479 9.70833 10.4744 8.225C12.1239 6.74167 14.0342 6 16.2051 6C18.3761 6 20.2863 6.74167 21.9359 8.225C23.5855 9.70833 24.4103 11.7 24.4103 14.2L26.5641 12.1L28 13.5L23.3846 18L18.7692 13.5L20.2051 12.1L22.359 14.2C22.359 12.3833 21.765 10.8958 20.5769 9.7375C19.3889 8.57917 17.9316 8 16.2051 8C14.4786 8 13.0214 8.57917 11.8333 9.7375C10.6453 10.8958 10.0513 12.3833 10.0513 14.2C10.0513 15.3833 10.5556 16.7375 11.5641 18.2625C12.5726 19.7875 14.1197 21.4833 16.2051 23.35C16.547 23.05 16.8632 22.7583 17.1538 22.475L18.0256 21.625C17.9402 21.4583 17.8718 21.2792 17.8205 21.0875C17.7692 20.8958 17.7436 20.7 17.7436 20.5C17.7436 19.8 17.9915 19.2083 18.4872 18.725C18.9829 18.2417 19.5897 18 20.3077 18C21.0256 18 21.6325 18.2417 22.1282 18.725C22.6239 19.2083 22.8718 19.8 22.8718 20.5C22.8718 21.2 22.6239 21.7917 22.1282 22.275C21.6325 22.7583 21.0256 23 20.3077 23C20.1709 23 20.047 22.9917 19.9359 22.975C19.8248 22.9583 19.7094 22.9333 19.5897 22.9C19.094 23.4 18.5684 23.9083 18.0128 24.425C17.4573 24.9417 16.8547 25.4667 16.2051 26Z" fill="#FAFAFA"/>
</svg>
