<svg width="24" height="24" viewBox="0 0 24 24" fill="none" xmlns="http://www.w3.org/2000/svg">
<g clip-path="url(#clip0_275_11753)">
<mask id="mask0_275_11753" style="mask-type:luminance" maskUnits="userSpaceOnUse" x="4" y="4" width="16" height="16">
<path d="M19.83 4H4V19.83H19.83V4Z" fill="white"/>
</mask>
<g mask="url(#mask0_275_11753)">
<path d="M7.57543 19.8044C7.4076 19.8044 7.2158 19.7543 7.07194 19.6291C6.78424 19.4036 6.66436 19.0529 6.73628 18.7023L7.67133 14.2942C7.69531 14.1439 7.64735 14.0186 7.55145 13.9184L4.29078 10.9128C4.02705 10.6624 3.93115 10.2867 4.05103 9.96107C4.1709 9.61043 4.43464 9.35996 4.79427 9.33492L9.08589 8.90912C9.22974 8.88408 9.34962 8.80894 9.39757 8.6837L11.1238 4.55102C11.2677 4.22542 11.5793 4 11.915 4C12.2746 4 12.5863 4.20037 12.7062 4.55102L14.4325 8.6837C14.4804 8.80894 14.6003 8.90912 14.7441 8.90912L19.0357 9.33492C19.3954 9.35996 19.6831 9.61043 19.7789 9.96107C19.8989 10.3117 19.803 10.6874 19.5392 10.9379L16.3025 13.9435C16.2066 14.0436 16.1586 14.1939 16.1827 14.3192L17.1177 18.7273C17.1897 19.078 17.0697 19.4537 16.782 19.6541C16.4943 19.8795 16.1347 19.8795 15.823 19.7042L12.1068 17.4249C11.9869 17.3498 11.8431 17.3498 11.7232 17.4249L8.00699 19.6791C7.86313 19.7543 7.71928 19.8044 7.57543 19.8044Z" fill="#FDC448"/>
</g>
</g>
<defs>
<clipPath id="clip0_275_11753">
<rect width="15.83" height="15.83" fill="white" transform="translate(4 4)"/>
</clipPath>
</defs>
</svg>
