<svg width="24" height="24" viewBox="0 0 24 24" fill="none" xmlns="http://www.w3.org/2000/svg">
<g id="calendar_clock">
<mask id="mask0_138_14552" style="mask-type:alpha" maskUnits="userSpaceOnUse" x="0" y="0" width="24" height="24">
<rect id="Bounding box" width="24" height="24" fill="#D9D9D9"/>
</mask>
<g mask="url(#mask0_138_14552)">
<path id="calendar_clock_2" d="M5 9.61538H19V6.61538C19 6.46154 18.9359 6.32052 18.8077 6.1923C18.6795 6.0641 18.5385 6 18.3846 6H5.61538C5.46154 6 5.32052 6.0641 5.1923 6.1923C5.0641 6.32052 5 6.46154 5 6.61538V9.61538ZM5.61538 21C5.15513 21 4.77083 20.8458 4.4625 20.5375C4.15417 20.2292 4 19.8449 4 19.3846V6.61538C4 6.15513 4.15417 5.77083 4.4625 5.4625C4.77083 5.15417 5.15513 5 5.61538 5H7.3846V2.76923H8.46153V5H15.6154V2.76923H16.6154V5H18.3846C18.8449 5 19.2292 5.15417 19.5375 5.4625C19.8458 5.77083 20 6.15513 20 6.61538V11.8673C19.8372 11.8071 19.6724 11.7622 19.5058 11.7327C19.3391 11.7032 19.1705 11.6763 19 11.6519V10.6154H5V19.3846C5 19.5385 5.0641 19.6795 5.1923 19.8077C5.32052 19.9359 5.46154 20 5.61538 20H12.3192C12.3718 20.1872 12.4388 20.3609 12.5202 20.5212C12.6016 20.6814 12.6865 20.841 12.775 21H5.61538ZM18.3846 22C17.2705 22 16.3253 21.6119 15.549 20.8356C14.7727 20.0593 14.3846 19.1141 14.3846 18C14.3846 16.8859 14.7727 15.9407 15.549 15.1644C16.3253 14.3881 17.2705 14 18.3846 14C19.4987 14 20.4439 14.3881 21.2202 15.1644C21.9965 15.9407 22.3846 16.8859 22.3846 18C22.3846 19.1141 21.9965 20.0593 21.2202 20.8356C20.4439 21.6119 19.4987 22 18.3846 22ZM20.0404 20.2019L20.5865 19.6558L18.7692 17.8385V15.1154H18V18.1616L20.0404 20.2019Z" fill="#FAFAFA"/>
</g>
</g>
</svg>
