<svg width="24" height="24" viewBox="0 0 24 24" fill="none" xmlns="http://www.w3.org/2000/svg">
<mask id="mask0_138_14516" style="mask-type:alpha" maskUnits="userSpaceOnUse" x="0" y="0" width="24" height="24">
<rect width="24" height="24" fill="#D9D9D9"/>
</mask>
<g mask="url(#mask0_138_14516)">
<path d="M10.673 19.3116V13.7698L12.0345 9.88078C12.0794 9.80001 12.1329 9.73558 12.1951 9.6875C12.2573 9.63942 12.3538 9.61538 12.4845 9.61538H19.6307C19.7426 9.61538 19.8385 9.63942 19.9185 9.6875C19.9984 9.73558 20.0525 9.80001 20.0807 9.88078L21.4422 13.7698V19.3116C21.4422 19.4298 21.4019 19.5292 21.3213 19.6098C21.2407 19.6905 21.1412 19.7308 21.023 19.7308H20.8614C20.7432 19.7308 20.6438 19.6905 20.5631 19.6098C20.4825 19.5292 20.4422 19.4298 20.4422 19.3116V18.0385H11.673V19.3116C11.673 19.4298 11.6327 19.5292 11.5521 19.6098C11.4715 19.6905 11.372 19.7308 11.2538 19.7308H11.0922C10.974 19.7308 10.8746 19.6905 10.7939 19.6098C10.7133 19.5292 10.673 19.4298 10.673 19.3116ZM11.9038 12.9615H20.2114L19.3576 10.5H12.7576L11.9038 12.9615ZM13.1345 16.3077C13.3852 16.3077 13.5953 16.2229 13.7648 16.0534C13.9344 15.8838 14.0191 15.6737 14.0191 15.4231C14.0191 15.1724 13.9344 14.9623 13.7648 14.7928C13.5953 14.6232 13.3852 14.5385 13.1345 14.5385C12.8839 14.5385 12.6738 14.6232 12.5042 14.7928C12.3347 14.9623 12.2499 15.1724 12.2499 15.4231C12.2499 15.6737 12.3347 15.8838 12.5042 16.0534C12.6738 16.2229 12.8839 16.3077 13.1345 16.3077ZM18.9807 16.3077C19.2313 16.3077 19.4414 16.2229 19.611 16.0534C19.7805 15.8838 19.8653 15.6737 19.8653 15.4231C19.8653 15.1724 19.7805 14.9623 19.611 14.7928C19.4414 14.6232 19.2313 14.5385 18.9807 14.5385C18.73 14.5385 18.5199 14.6232 18.3504 14.7928C18.1808 14.9623 18.0961 15.1724 18.0961 15.4231C18.0961 15.6737 18.1808 15.8838 18.3504 16.0534C18.5199 16.2229 18.73 16.3077 18.9807 16.3077ZM4.55762 19.5V19.1923L6.24992 17.5C5.31402 17.5 4.46466 17.2949 3.70184 16.8846C2.93903 16.4744 2.55762 15.8462 2.55762 15V6.5C2.55762 5.82308 3.05569 5.32052 4.05184 4.9923C5.04799 4.6641 6.54992 4.5 8.55762 4.5C10.5884 4.5 12.0961 4.66217 13.0807 4.98652C14.0653 5.31089 14.5576 5.81538 14.5576 6.5V7.84615H13.5576V6.5H3.55762V13.5H8.90377V19.5H4.55762ZM5.05762 15.8846C5.30825 15.8846 5.51834 15.7999 5.68789 15.6303C5.85744 15.4607 5.94222 15.2506 5.94222 15C5.94222 14.7494 5.85744 14.5393 5.68789 14.3697C5.51834 14.2002 5.30825 14.1154 5.05762 14.1154C4.80697 14.1154 4.59687 14.2002 4.42732 14.3697C4.25777 14.5393 4.17299 14.7494 4.17299 15C4.17299 15.2506 4.25777 15.4607 4.42732 15.6303C4.59687 15.7999 4.80697 15.8846 5.05762 15.8846ZM11.5576 17.1538H20.5576V13.8462H11.5576V17.1538Z" fill="#141414"/>
</g>
</svg>
