<svg width="432" height="322" viewBox="0 0 432 322" fill="none" xmlns="http://www.w3.org/2000/svg">
<path d="M370.382 81.2738C366.137 78.9644 364.205 80.8842 362.664 78.9644C361.122 77.0446 366.908 72.0266 355.336 67.018C355.336 67.018 354.565 56.2311 338.748 55.8415C322.932 55.4518 327.138 66.6284 322.922 69.3275C318.706 72.0266 317.526 67.7879 313.282 70.487C309.037 73.1861 310.969 78.5748 307.496 79.3446C304.022 80.1144 299.388 75.8757 295.124 78.5748C290.861 81.2739 290.889 83.5833 288.957 83.5833C287.026 83.5833 283.171 82.0437 280.849 83.5833C278.527 85.1229 275.834 87.0522 275.834 87.0522H373.465C373.465 87.0522 374.626 83.5833 370.382 81.2738Z" fill="#304952" stroke="#304952" stroke-width="2.10526" stroke-linecap="round" stroke-linejoin="round"/>
<path d="M125.651 138.307C123.51 137.138 122.53 138.107 121.749 137.138C120.969 136.169 123.9 133.631 118.047 131.103C118.047 131.103 117.657 125.657 109.673 125.467C101.688 125.277 103.829 130.913 101.679 132.272C99.528 133.631 98.957 131.493 96.8158 132.861C94.6745 134.23 95.6452 136.948 93.8846 137.338C92.1241 137.727 89.7925 135.579 87.6513 136.948C85.51 138.316 85.51 139.476 84.5393 139.476C83.5686 139.476 81.6082 138.697 80.4472 139.476C79.2862 140.255 77.9062 141.225 77.9062 141.225H127.212C127.212 141.225 127.792 139.476 125.651 138.307Z" fill="#304952" stroke="#304952" stroke-width="2.10526" stroke-linecap="round" stroke-linejoin="round"/>
<path d="M215.108 53.7221C212.967 52.5531 211.987 53.5225 211.206 52.5531C210.426 51.5837 213.357 49.0462 207.504 46.5182C207.504 46.5182 207.114 41.0725 199.13 40.8824C191.145 40.6923 193.287 46.3281 191.136 47.6872C188.985 49.0462 188.414 46.9078 186.273 48.2764C184.132 49.645 185.102 52.3631 183.342 52.7527C181.581 53.1424 179.25 50.9945 177.108 52.3631C174.967 53.7316 174.967 54.8911 173.996 54.8911C173.026 54.8911 171.065 54.1118 169.904 54.8911C168.743 55.6704 167.363 56.6398 167.363 56.6398H216.669C216.669 56.6398 217.249 54.8911 215.108 53.7221Z" fill="#304952" stroke="#304952" stroke-width="2.10526" stroke-linecap="round" stroke-linejoin="round"/>
<path d="M343.09 311.42H388.989C388.114 305.822 384.507 306.81 384.031 298.114C383.793 293.743 387.838 288.335 387.495 282.595C387.2 277.843 382.527 273.015 382.166 267.597C381.842 262.712 385.83 257.295 385.439 252.03C385.078 247.06 380.338 242.279 379.92 237.109C379.501 231.939 383.412 226.588 382.956 221.494C382.499 216.4 377.674 211.696 377.169 206.668C376.665 201.641 380.415 195.938 379.844 190.987C379.225 185.741 374.267 181.198 373.591 176.36C372.839 170.972 376.361 165.222 375.495 160.574C374.486 154.872 369.175 150.747 368.062 146.547C365.978 138.715 366.235 131.16 363.78 130.675C361.153 130.143 360.553 137.546 358.564 145.815C357.613 149.977 352.369 154.188 351.522 159.89C350.827 164.509 354.501 170.116 353.901 175.486C353.359 180.285 348.524 184.904 348.058 190.131C347.611 195.045 351.541 200.462 351.151 205.594C350.761 210.726 346.079 215.355 345.755 220.42C345.432 225.486 349.476 230.808 349.2 235.807C348.924 240.806 344.318 245.786 344.08 250.728C343.833 255.946 347.953 261.182 347.754 266.058C347.535 271.427 342.995 276.35 342.824 281.045C342.615 286.748 346.802 291.994 346.678 296.328C346.393 305.746 342.082 303.798 341.92 311.372L343.09 311.42Z" fill="#84F5B7"/>
<path opacity="0.5" d="M343.09 311.42H388.989C388.114 305.822 384.507 306.81 384.031 298.114C383.793 293.743 387.838 288.335 387.495 282.595C387.2 277.843 382.527 273.015 382.166 267.597C381.842 262.712 385.83 257.295 385.439 252.03C385.078 247.06 380.338 242.279 379.92 237.109C379.501 231.939 383.412 226.588 382.956 221.494C382.499 216.4 377.674 211.696 377.169 206.668C376.665 201.641 380.415 195.938 379.844 190.987C379.225 185.741 374.267 181.198 373.591 176.36C372.839 170.972 376.361 165.222 375.495 160.574C374.486 154.872 369.175 150.747 368.062 146.547C365.978 138.715 366.235 131.16 363.78 130.675C361.153 130.143 360.553 137.546 358.564 145.815C357.613 149.977 352.369 154.188 351.522 159.89C350.827 164.509 354.501 170.116 353.901 175.486C353.359 180.285 348.524 184.904 348.058 190.131C347.611 195.045 351.541 200.462 351.151 205.594C350.761 210.726 346.079 215.355 345.755 220.42C345.432 225.486 349.476 230.808 349.2 235.807C348.924 240.806 344.318 245.786 344.08 250.728C343.833 255.946 347.953 261.182 347.754 266.058C347.535 271.427 342.995 276.35 342.824 281.045C342.615 286.748 346.802 291.994 346.678 296.328C346.393 305.746 342.082 303.798 341.92 311.372L343.09 311.42Z" fill="#FAFAFA"/>
<path d="M362.781 145.739V309.31" stroke="#005A44" stroke-width="2.10526" stroke-miterlimit="10"/>
<path d="M369.936 162.884L362.475 169.318L356.365 161.183" stroke="#005A44" stroke-width="2.10526" stroke-miterlimit="10"/>
<path d="M369.936 191.358L362.475 197.792L356.365 189.656" stroke="#005A44" stroke-width="2.10526" stroke-miterlimit="10"/>
<path d="M369.936 218.13L362.475 224.573L356.365 216.438" stroke="#005A44" stroke-width="2.10526" stroke-miterlimit="10"/>
<path d="M369.936 249.996L362.475 256.43L356.365 248.295" stroke="#005A44" stroke-width="2.10526" stroke-miterlimit="10"/>
<path d="M369.936 282.196L362.475 288.63L356.365 280.494" stroke="#005A44" stroke-width="2.10526" stroke-miterlimit="10"/>
<path d="M34.0197 311.421H79.8897C79.0047 305.823 75.4074 306.812 74.922 298.116C74.6841 293.744 78.7287 288.336 78.3861 282.596C78.1006 277.844 73.4279 273.016 73.0663 267.599C72.7332 262.714 76.7207 257.296 76.34 252.031C75.9689 247.061 71.2391 242.28 70.8204 237.11C70.4016 231.94 74.313 226.589 73.8562 221.495C73.3994 216.401 68.5745 211.697 68.0606 206.669C67.5467 201.642 71.3152 195.939 70.7347 190.988C70.1257 185.742 65.158 181.199 64.4918 176.361C63.74 170.973 67.2517 165.223 66.3952 160.576C65.3864 154.873 60.0761 150.749 58.9532 146.548C56.9452 138.764 57.2021 131.161 54.7468 130.686C52.1202 130.154 51.5207 137.557 49.5317 145.826C48.5801 149.988 43.3364 154.198 42.4799 159.901C41.7947 164.52 45.4681 170.127 44.8591 175.497C44.3261 180.296 39.4917 184.915 39.0159 190.142C38.5781 195.056 42.499 200.473 42.1183 205.605C41.7376 210.737 37.0459 215.365 36.7224 220.431C36.3988 225.496 40.4434 230.819 40.1674 235.818C39.8914 240.817 35.2758 245.797 35.0379 250.739C34.7905 255.956 38.9207 261.193 38.7209 266.069C38.4925 271.438 33.9626 276.361 33.7817 281.056C33.5819 286.758 37.7692 292.005 37.5884 296.338C37.3124 305.757 32.9919 303.808 32.8301 311.383L34.0197 311.421Z" fill="#84F5B7"/>
<path opacity="0.5" d="M34.0197 311.421H79.8897C79.0047 305.823 75.4074 306.812 74.922 298.116C74.6841 293.744 78.7287 288.336 78.3861 282.596C78.1006 277.844 73.4279 273.016 73.0663 267.599C72.7332 262.714 76.7207 257.296 76.34 252.031C75.9689 247.061 71.2391 242.28 70.8204 237.11C70.4016 231.94 74.313 226.589 73.8562 221.495C73.3994 216.401 68.5745 211.697 68.0606 206.669C67.5467 201.642 71.3152 195.939 70.7347 190.988C70.1257 185.742 65.158 181.199 64.4918 176.361C63.74 170.973 67.2517 165.223 66.3952 160.576C65.3864 154.873 60.0761 150.749 58.9532 146.548C56.9452 138.764 57.2021 131.161 54.7468 130.686C52.1202 130.154 51.5207 137.557 49.5317 145.826C48.5801 149.988 43.3364 154.198 42.4799 159.901C41.7947 164.52 45.4681 170.127 44.8591 175.497C44.3261 180.296 39.4917 184.915 39.0159 190.142C38.5781 195.056 42.499 200.473 42.1183 205.605C41.7376 210.737 37.0459 215.365 36.7224 220.431C36.3988 225.496 40.4434 230.819 40.1674 235.818C39.8914 240.817 35.2758 245.797 35.0379 250.739C34.7905 255.956 38.9207 261.193 38.7209 266.069C38.4925 271.438 33.9626 276.361 33.7817 281.056C33.5819 286.758 37.7692 292.005 37.5884 296.338C37.3124 305.757 32.9919 303.808 32.8301 311.383L34.0197 311.421Z" fill="#FAFAFA"/>
<path d="M53.7383 145.739V309.31" stroke="#005A44" stroke-width="2.10526" stroke-miterlimit="10"/>
<path d="M60.9025 162.884L53.4319 169.318L47.3223 161.183" stroke="#005A44" stroke-width="2.10526" stroke-miterlimit="10"/>
<path d="M60.9025 191.358L53.4319 197.792L47.3223 189.656" stroke="#005A44" stroke-width="2.10526" stroke-miterlimit="10"/>
<path d="M60.9025 218.13L53.4319 224.573L47.3223 216.438" stroke="#005A44" stroke-width="2.10526" stroke-miterlimit="10"/>
<path d="M60.9025 249.996L53.4319 256.43L47.3223 248.295" stroke="#005A44" stroke-width="2.10526" stroke-miterlimit="10"/>
<path d="M60.9025 282.196L53.4319 288.63L47.3223 280.494" stroke="#005A44" stroke-width="2.10526" stroke-miterlimit="10"/>
<path d="M275.465 311.42H309.724C309.068 307.239 306.375 307.98 306.023 301.489C305.842 298.229 308.877 294.19 308.602 289.894C308.392 286.359 304.9 282.738 304.633 278.698C304.386 275.049 307.364 271 307.069 267.075C306.803 263.35 303.263 259.786 302.949 255.927C302.635 252.069 305.556 248.058 305.242 244.256C304.928 240.455 301.293 236.948 300.912 233.194C300.531 229.44 303.339 225.173 302.911 221.476C302.454 217.551 298.742 214.167 298.247 210.556C297.686 206.526 300.313 202.23 299.694 198.761C298.942 194.504 294.936 191.424 294.136 188.307C292.556 182.481 292.747 176.779 290.967 176.427C289.188 176.076 288.56 181.559 287.065 187.737C286.323 190.845 282.44 193.99 281.803 198.248C281.289 201.698 284.03 205.851 283.582 209.9C283.183 213.483 279.566 216.933 279.214 220.839C278.881 224.507 281.822 228.556 281.527 232.386C281.232 236.216 277.72 239.676 277.501 243.458C277.282 247.241 280.28 251.213 280.08 254.958C279.88 258.702 276.426 262.409 276.274 266.096C276.093 269.993 279.129 273.928 279.024 277.501C278.853 281.512 275.465 285.19 275.331 288.687C275.189 292.945 278.31 296.87 278.186 300.092C277.977 307.125 274.751 305.67 274.637 311.325L275.465 311.42Z" fill="#84F5B7"/>
<path opacity="0.5" d="M275.465 311.42H309.724C309.068 307.239 306.375 307.98 306.023 301.489C305.842 298.229 308.877 294.19 308.602 289.894C308.392 286.359 304.9 282.738 304.633 278.698C304.386 275.049 307.364 271 307.069 267.075C306.803 263.35 303.263 259.786 302.949 255.927C302.635 252.069 305.556 248.058 305.242 244.256C304.928 240.455 301.293 236.948 300.912 233.194C300.531 229.44 303.339 225.173 302.911 221.476C302.454 217.551 298.742 214.167 298.247 210.556C297.686 206.526 300.313 202.23 299.694 198.761C298.942 194.504 294.936 191.424 294.136 188.307C292.556 182.481 292.747 176.779 290.967 176.427C289.188 176.076 288.56 181.559 287.065 187.737C286.323 190.845 282.44 193.99 281.803 198.248C281.289 201.698 284.03 205.851 283.582 209.9C283.183 213.483 279.566 216.933 279.214 220.839C278.881 224.507 281.822 228.556 281.527 232.386C281.232 236.216 277.72 239.676 277.501 243.458C277.282 247.241 280.28 251.213 280.08 254.958C279.88 258.702 276.426 262.409 276.274 266.096C276.093 269.993 279.129 273.928 279.024 277.501C278.853 281.512 275.465 285.19 275.331 288.687C275.189 292.945 278.31 296.87 278.186 300.092C277.977 307.125 274.751 305.67 274.637 311.325L275.465 311.42Z" fill="#FAFAFA"/>
<path d="M290.168 187.67V309.843" stroke="#005A44" stroke-width="2.10526" stroke-miterlimit="10"/>
<path d="M295.52 200.481L289.943 205.29L285.375 199.207" stroke="#005A44" stroke-width="2.10526" stroke-miterlimit="10"/>
<path d="M295.52 221.741L289.943 226.55L285.375 220.477" stroke="#005A44" stroke-width="2.10526" stroke-miterlimit="10"/>
<path d="M295.52 241.747L289.943 246.556L285.375 240.473" stroke="#005A44" stroke-width="2.10526" stroke-miterlimit="10"/>
<path d="M295.52 265.536L289.943 270.354L285.375 264.272" stroke="#005A44" stroke-width="2.10526" stroke-miterlimit="10"/>
<path d="M295.52 289.59L289.943 294.399L285.375 288.326" stroke="#005A44" stroke-width="2.10526" stroke-miterlimit="10"/>
<path d="M384.908 311.42H419.168C418.511 307.239 415.818 307.98 415.466 301.489C415.285 298.229 418.321 294.19 418.045 289.894C417.835 286.359 414.343 282.738 414.076 278.698C413.829 275.049 416.808 271 416.513 267.075C416.246 263.35 412.706 259.786 412.392 255.927C412.078 252.069 415 248.058 414.685 244.256C414.371 240.455 410.736 236.948 410.355 233.194C409.975 229.44 412.782 225.173 412.354 221.476C411.897 217.551 408.186 214.167 407.691 210.556C407.129 206.526 409.756 202.23 409.137 198.761C408.386 194.504 404.379 191.424 403.58 188.307C402 182.481 402.19 176.779 400.411 176.427C398.631 176.076 398.003 181.559 396.509 187.737C395.766 190.845 391.884 193.99 391.246 198.248C390.732 201.698 393.473 205.851 393.026 209.9C392.626 213.483 389.01 216.933 388.658 220.839C388.324 224.507 391.265 228.556 390.97 232.386C390.675 236.216 387.163 239.676 386.945 243.458C386.726 247.241 389.723 251.213 389.524 254.958C389.324 258.702 385.869 262.409 385.717 266.096C385.536 269.993 388.572 273.928 388.467 277.501C388.296 281.512 384.908 285.19 384.775 288.687C384.632 292.945 387.753 296.87 387.63 300.092C387.42 307.125 384.194 305.67 384.08 311.325L384.908 311.42Z" fill="#84F5B7"/>
<path opacity="0.5" d="M384.908 311.42H419.168C418.511 307.239 415.818 307.98 415.466 301.489C415.285 298.229 418.321 294.19 418.045 289.894C417.835 286.359 414.343 282.738 414.076 278.698C413.829 275.049 416.808 271 416.513 267.075C416.246 263.35 412.706 259.786 412.392 255.927C412.078 252.069 415 248.058 414.685 244.256C414.371 240.455 410.736 236.948 410.355 233.194C409.975 229.44 412.782 225.173 412.354 221.476C411.897 217.551 408.186 214.167 407.691 210.556C407.129 206.526 409.756 202.23 409.137 198.761C408.386 194.504 404.379 191.424 403.58 188.307C402 182.481 402.19 176.779 400.411 176.427C398.631 176.076 398.003 181.559 396.509 187.737C395.766 190.845 391.884 193.99 391.246 198.248C390.732 201.698 393.473 205.851 393.026 209.9C392.626 213.483 389.01 216.933 388.658 220.839C388.324 224.507 391.265 228.556 390.97 232.386C390.675 236.216 387.163 239.676 386.945 243.458C386.726 247.241 389.723 251.213 389.524 254.958C389.324 258.702 385.869 262.409 385.717 266.096C385.536 269.993 388.572 273.928 388.467 277.501C388.296 281.512 384.908 285.19 384.775 288.687C384.632 292.945 387.753 296.87 387.63 300.092C387.42 307.125 384.194 305.67 384.08 311.325L384.908 311.42Z" fill="#FAFAFA"/>
<path d="M399.613 187.67V309.843" stroke="#005A44" stroke-width="2.10526" stroke-miterlimit="10"/>
<path d="M404.959 200.481L399.382 205.29L394.814 199.207" stroke="#005A44" stroke-width="2.10526" stroke-miterlimit="10"/>
<path d="M404.959 221.741L399.382 226.55L394.814 220.477" stroke="#005A44" stroke-width="2.10526" stroke-miterlimit="10"/>
<path d="M404.959 241.747L399.382 246.556L394.814 240.473" stroke="#005A44" stroke-width="2.10526" stroke-miterlimit="10"/>
<path d="M404.959 265.536L399.382 270.354L394.814 264.272" stroke="#005A44" stroke-width="2.10526" stroke-miterlimit="10"/>
<path d="M404.959 289.59L399.382 294.399L394.814 288.326" stroke="#005A44" stroke-width="2.10526" stroke-miterlimit="10"/>
<path d="M237.675 311.42H271.935C271.269 307.239 268.585 307.98 268.223 301.489C268.043 298.229 271.078 294.19 270.812 289.894C270.593 286.359 267.11 282.738 266.834 278.698C266.587 275.049 269.565 271 269.28 267.075C269.004 263.35 265.473 259.786 265.159 255.927C264.845 252.069 267.767 248.067 267.424 244.256C267.081 240.445 263.484 236.948 263.094 233.194C262.704 229.44 265.53 225.173 265.092 221.476C264.636 217.551 260.934 214.167 260.429 210.556C259.868 206.526 262.494 202.23 261.876 198.761C261.124 194.504 257.165 191.424 256.328 188.307C254.805 182.481 254.986 176.779 253.149 176.427C251.312 176.076 250.741 181.559 249.257 187.737C248.505 190.845 244.632 193.99 243.994 198.248C243.471 201.698 246.221 205.851 245.764 209.9C245.365 213.483 241.758 216.933 241.406 220.839C241.073 224.507 244.004 228.556 243.718 232.386C243.433 236.216 239.912 239.676 239.683 243.458C239.455 247.241 242.471 251.213 242.262 254.958C242.053 258.702 238.608 262.409 238.455 266.096C238.265 269.993 241.31 273.928 241.196 277.501C241.034 281.512 237.637 285.19 237.513 288.687C237.361 292.945 240.492 296.87 240.368 300.092C240.159 307.125 236.942 305.67 236.828 311.325L237.675 311.42Z" fill="#84F5B7"/>
<path opacity="0.5" d="M237.675 311.42H271.935C271.269 307.239 268.585 307.98 268.223 301.489C268.043 298.229 271.078 294.19 270.812 289.894C270.593 286.359 267.11 282.738 266.834 278.698C266.587 275.049 269.565 271 269.28 267.075C269.004 263.35 265.473 259.786 265.159 255.927C264.845 252.069 267.767 248.067 267.424 244.256C267.081 240.445 263.484 236.948 263.094 233.194C262.704 229.44 265.53 225.173 265.092 221.476C264.636 217.551 260.934 214.167 260.429 210.556C259.868 206.526 262.494 202.23 261.876 198.761C261.124 194.504 257.165 191.424 256.328 188.307C254.805 182.481 254.986 176.779 253.149 176.427C251.312 176.076 250.741 181.559 249.257 187.737C248.505 190.845 244.632 193.99 243.994 198.248C243.471 201.698 246.221 205.851 245.764 209.9C245.365 213.483 241.758 216.933 241.406 220.839C241.073 224.507 244.004 228.556 243.718 232.386C243.433 236.216 239.912 239.676 239.683 243.458C239.455 247.241 242.471 251.213 242.262 254.958C242.053 258.702 238.608 262.409 238.455 266.096C238.265 269.993 241.31 273.928 241.196 277.501C241.034 281.512 237.637 285.19 237.513 288.687C237.361 292.945 240.492 296.87 240.368 300.092C240.159 307.125 236.942 305.67 236.828 311.325L237.675 311.42Z" fill="#FAFAFA"/>
<path d="M252.396 187.67V309.843" stroke="#005A44" stroke-width="2.10526" stroke-miterlimit="10"/>
<path d="M257.747 200.481L252.17 205.29L247.611 199.207" stroke="#005A44" stroke-width="2.10526" stroke-miterlimit="10"/>
<path d="M257.747 221.741L252.17 226.55L247.611 220.477" stroke="#005A44" stroke-width="2.10526" stroke-miterlimit="10"/>
<path d="M257.747 241.747L252.17 246.556L247.611 240.473" stroke="#005A44" stroke-width="2.10526" stroke-miterlimit="10"/>
<path d="M257.747 265.536L252.17 270.354L247.611 264.272" stroke="#005A44" stroke-width="2.10526" stroke-miterlimit="10"/>
<path d="M257.747 289.59L252.17 294.399L247.611 288.326" stroke="#005A44" stroke-width="2.10526" stroke-miterlimit="10"/>
<path d="M171.153 311.421H205.413C204.756 307.239 202.063 307.98 201.711 301.489C201.53 298.229 204.566 294.19 204.29 289.894C204.081 286.359 200.588 282.738 200.322 278.699C200.074 275.049 203.053 271.001 202.767 267.075C202.491 263.35 198.961 259.786 198.637 255.927C198.314 252.069 201.254 248.068 200.912 244.257C200.569 240.446 196.962 236.948 196.582 233.194C196.201 229.44 199.008 225.173 198.58 221.476C198.123 217.551 194.412 214.167 193.917 210.556C193.355 206.526 195.982 202.23 195.363 198.762C194.612 194.504 190.605 191.425 189.806 188.307C188.254 182.462 188.445 176.817 186.618 176.456C184.648 176.066 184.21 181.588 182.716 187.766C181.974 190.873 178.091 194.019 177.453 198.277C176.939 201.727 179.68 205.88 179.233 209.929C178.833 213.512 175.217 216.962 174.865 220.868C174.532 224.536 177.472 228.585 177.177 232.415C176.882 236.245 173.37 239.704 173.152 243.487C172.933 247.269 175.93 251.242 175.731 254.986C175.531 258.731 172.076 262.438 171.924 266.125C171.743 270.022 174.779 273.956 174.674 277.53C174.503 281.54 171.115 285.218 170.982 288.716C170.839 292.973 173.961 296.899 173.837 300.12C173.627 307.153 170.401 305.699 170.287 311.354L171.153 311.421Z" fill="#84F5B7"/>
<path opacity="0.5" d="M171.153 311.421H205.413C204.756 307.239 202.063 307.98 201.711 301.489C201.53 298.229 204.566 294.19 204.29 289.894C204.081 286.359 200.588 282.738 200.322 278.699C200.074 275.049 203.053 271.001 202.767 267.075C202.491 263.35 198.961 259.786 198.637 255.927C198.314 252.069 201.254 248.068 200.912 244.257C200.569 240.446 196.962 236.948 196.582 233.194C196.201 229.44 199.008 225.173 198.58 221.476C198.123 217.551 194.412 214.167 193.917 210.556C193.355 206.526 195.982 202.23 195.363 198.762C194.612 194.504 190.605 191.425 189.806 188.307C188.254 182.462 188.445 176.817 186.618 176.456C184.648 176.066 184.21 181.588 182.716 187.766C181.974 190.873 178.091 194.019 177.453 198.277C176.939 201.727 179.68 205.88 179.233 209.929C178.833 213.512 175.217 216.962 174.865 220.868C174.532 224.536 177.472 228.585 177.177 232.415C176.882 236.245 173.37 239.704 173.152 243.487C172.933 247.269 175.93 251.242 175.731 254.986C175.531 258.731 172.076 262.438 171.924 266.125C171.743 270.022 174.779 273.956 174.674 277.53C174.503 281.54 171.115 285.218 170.982 288.716C170.839 292.973 173.961 296.899 173.837 300.12C173.627 307.153 170.401 305.699 170.287 311.354L171.153 311.421Z" fill="#FAFAFA"/>
<path d="M185.855 187.67V309.843" stroke="#005A44" stroke-width="2.10526" stroke-miterlimit="10"/>
<path d="M191.207 200.481L185.63 205.29L181.062 199.207" stroke="#005A44" stroke-width="2.10526" stroke-miterlimit="10"/>
<path d="M191.207 221.741L185.63 226.55L181.062 220.477" stroke="#005A44" stroke-width="2.10526" stroke-miterlimit="10"/>
<path d="M191.207 241.747L185.63 246.556L181.062 240.473" stroke="#005A44" stroke-width="2.10526" stroke-miterlimit="10"/>
<path d="M191.207 265.536L185.63 270.354L181.062 264.272" stroke="#005A44" stroke-width="2.10526" stroke-miterlimit="10"/>
<path d="M191.207 289.59L185.63 294.399L181.062 288.326" stroke="#005A44" stroke-width="2.10526" stroke-miterlimit="10"/>
<path d="M87.4369 300.651H116.196C115.644 297.135 113.389 297.8 113.084 292.307C112.932 289.57 115.473 286.177 115.254 282.575C115.073 279.61 112.142 276.568 111.914 273.176C111.714 270.106 114.217 266.713 113.969 263.415C113.741 260.288 110.772 257.295 110.505 254.054C110.239 250.813 112.703 247.458 112.408 244.265C112.113 241.072 109.106 238.125 108.783 234.97C108.459 231.815 110.819 228.241 110.458 225.134C110.077 221.845 106.965 218.994 106.537 215.962C106.07 212.588 108.278 208.977 107.755 206.059C107.127 202.486 103.796 199.901 103.092 197.268C101.788 192.355 101.95 187.622 100.408 187.318C98.8663 187.013 98.3905 191.623 97.1438 196.821C96.5157 199.426 93.261 202.068 92.7281 205.641C92.2903 208.54 94.6314 212.056 94.2127 215.421C93.8796 218.433 90.8438 221.332 90.5488 224.611C90.2728 227.69 92.7376 231.083 92.4521 234.305C92.1666 237.527 89.2736 240.416 89.0737 243.6C88.8739 246.783 91.4053 250.11 91.234 253.246C91.0627 256.382 88.1696 259.509 88.0174 262.607C87.8651 265.877 90.4536 269.184 90.3204 272.216C90.1872 275.58 87.3322 278.669 87.2275 281.615C87.1038 285.179 89.7304 288.477 89.6447 291.195C89.4734 297.106 86.7897 295.88 86.666 300.632L87.4369 300.651Z" fill="#84F5B7"/>
<path opacity="0.5" d="M87.4369 300.651H116.196C115.644 297.135 113.389 297.8 113.084 292.307C112.932 289.57 115.473 286.177 115.254 282.575C115.073 279.61 112.142 276.568 111.914 273.176C111.714 270.106 114.217 266.713 113.969 263.415C113.741 260.288 110.772 257.295 110.505 254.054C110.239 250.813 112.703 247.458 112.408 244.265C112.113 241.072 109.106 238.125 108.783 234.97C108.459 231.815 110.819 228.241 110.458 225.134C110.077 221.845 106.965 218.994 106.537 215.962C106.07 212.588 108.278 208.977 107.755 206.059C107.127 202.486 103.796 199.901 103.092 197.268C101.788 192.355 101.95 187.622 100.408 187.318C98.8663 187.013 98.3905 191.623 97.1438 196.821C96.5157 199.426 93.261 202.068 92.7281 205.641C92.2903 208.54 94.6314 212.056 94.2127 215.421C93.8796 218.433 90.8438 221.332 90.5488 224.611C90.2728 227.69 92.7376 231.083 92.4521 234.305C92.1666 237.527 89.2736 240.416 89.0737 243.6C88.8739 246.783 91.4053 250.11 91.234 253.246C91.0627 256.382 88.1696 259.509 88.0174 262.607C87.8651 265.877 90.4536 269.184 90.3204 272.216C90.1872 275.58 87.3322 278.669 87.2275 281.615C87.1038 285.179 89.7304 288.477 89.6447 291.195C89.4734 297.106 86.7897 295.88 86.666 300.632L87.4369 300.651Z" fill="#FAFAFA"/>
<path d="M99.7812 196.756V299.321" stroke="#005A44" stroke-width="2.10526" stroke-miterlimit="10"/>
<path d="M104.27 207.505L99.5874 211.544L95.7617 206.441" stroke="#005A44" stroke-width="2.10526" stroke-miterlimit="10"/>
<path d="M104.27 225.363L99.5874 229.402L95.7617 224.299" stroke="#005A44" stroke-width="2.10526" stroke-miterlimit="10"/>
<path d="M104.27 242.145L99.5874 246.185L95.7617 241.091" stroke="#005A44" stroke-width="2.10526" stroke-miterlimit="10"/>
<path d="M104.27 262.132L99.5874 266.162L95.7617 261.068" stroke="#005A44" stroke-width="2.10526" stroke-miterlimit="10"/>
<path d="M104.27 282.319L99.5874 286.358L95.7617 281.255" stroke="#005A44" stroke-width="2.10526" stroke-miterlimit="10"/>
<path d="M131.003 311.42H173.028C172.219 306.288 168.917 307.191 168.479 299.236C168.26 295.235 171.972 290.274 171.658 284.981C171.391 280.637 167.109 276.199 166.776 271.238C166.481 266.762 170.126 261.801 169.774 256.982C169.44 252.42 165.101 248.049 164.72 243.306C164.34 238.564 167.918 233.669 167.499 228.993C167.08 224.317 162.665 220.031 162.189 215.422C161.713 210.812 165.177 205.585 164.644 201.052C164.083 196.233 159.534 192.08 158.934 187.651C158.249 182.709 161.475 177.435 160.714 173.177C159.762 167.959 154.928 164.177 153.9 160.328C151.997 153.152 152.234 146.234 149.979 145.777C147.581 145.302 147.029 152.078 145.221 159.663C144.269 163.464 139.511 167.323 138.768 172.55C138.131 176.779 141.5 181.93 140.948 186.806C140.453 191.206 136.018 195.435 135.59 200.225C135.181 204.73 138.778 209.729 138.445 214.395C138.112 219.062 133.801 223.338 133.506 227.976C133.211 232.614 136.922 237.48 136.665 242.08C136.408 246.68 132.183 251.223 131.964 255.747C131.736 260.499 135.523 265.365 135.333 269.803C135.133 274.716 130.965 279.231 130.813 283.527C130.632 288.744 134.467 293.563 134.343 297.535C134.086 306.165 130.137 304.378 129.994 311.316L131.003 311.42Z" fill="#84F5B7"/>
<path opacity="0.5" d="M131.003 311.42H173.028C172.219 306.288 168.917 307.191 168.479 299.236C168.26 295.235 171.972 290.274 171.658 284.981C171.391 280.637 167.109 276.199 166.776 271.238C166.481 266.762 170.126 261.801 169.774 256.982C169.44 252.42 165.101 248.049 164.72 243.306C164.34 238.564 167.918 233.669 167.499 228.993C167.08 224.317 162.665 220.031 162.189 215.422C161.713 210.812 165.177 205.585 164.644 201.052C164.083 196.233 159.534 192.08 158.934 187.651C158.249 182.709 161.475 177.435 160.714 173.177C159.762 167.959 154.928 164.177 153.9 160.328C151.997 153.152 152.234 146.234 149.979 145.777C147.581 145.302 147.029 152.078 145.221 159.663C144.269 163.464 139.511 167.323 138.768 172.55C138.131 176.779 141.5 181.93 140.948 186.806C140.453 191.206 136.018 195.435 135.59 200.225C135.181 204.73 138.778 209.729 138.445 214.395C138.112 219.062 133.801 223.338 133.506 227.976C133.211 232.614 136.922 237.48 136.665 242.08C136.408 246.68 132.183 251.223 131.964 255.747C131.736 260.499 135.523 265.365 135.333 269.803C135.133 274.716 130.965 279.231 130.813 283.527C130.632 288.744 134.467 293.563 134.343 297.535C134.086 306.165 130.137 304.378 129.994 311.316L131.003 311.42Z" fill="#FAFAFA"/>
<path d="M149.049 159.605V309.49" stroke="#005A44" stroke-width="2.10526" stroke-miterlimit="10"/>
<path d="M155.604 175.314L148.762 181.216L143.166 173.765" stroke="#005A44" stroke-width="2.10526" stroke-miterlimit="10"/>
<path d="M155.604 201.404L148.762 207.306L143.166 199.854" stroke="#005A44" stroke-width="2.10526" stroke-miterlimit="10"/>
<path d="M155.604 225.941L148.762 231.843L143.166 224.382" stroke="#005A44" stroke-width="2.10526" stroke-miterlimit="10"/>
<path d="M155.604 255.137L148.762 261.03L143.166 253.578" stroke="#005A44" stroke-width="2.10526" stroke-miterlimit="10"/>
<path d="M155.604 284.638L148.762 290.54L143.166 283.089" stroke="#005A44" stroke-width="2.10526" stroke-miterlimit="10"/>
<path d="M423.192 299.425L416.055 296.526L408.908 299.425L401.77 296.526L394.623 299.425L387.486 296.526L380.349 299.425L373.202 296.526L366.064 299.425L358.917 296.526L351.78 299.425L344.642 296.526L337.495 299.425L330.358 296.526L323.22 299.425L316.073 296.526L308.936 299.425L301.789 296.526L294.651 299.425L287.514 296.526L280.367 299.425L273.23 296.526L266.083 299.425L258.945 296.526L251.808 299.425L244.661 296.526L237.523 299.425L230.386 296.526L223.239 299.425L216.101 296.526L208.964 299.425L201.817 296.526L194.679 299.425L187.542 296.526L180.405 299.425L173.258 296.526L166.12 299.425L158.983 296.526L151.845 299.425L144.708 296.526L137.561 299.425L130.423 296.526L123.286 299.425L116.148 296.526L109.011 299.425L101.873 296.526L94.736 299.425L87.589 296.526L80.4516 299.425L73.3141 296.526L66.1767 299.425L59.0392 296.526L51.9017 299.425L44.7643 296.526L37.6268 299.425L30.4894 296.526L23.3519 299.425L16.2145 296.526L10.2285 298.959V311.428H424.201V299.016L423.192 299.425Z" fill="#005A44"/>
<path d="M287.166 109.358C282.788 109.359 278.54 110.843 275.118 113.569C274.268 108.333 271.906 103.46 268.322 99.5459C264.738 95.6322 260.087 92.8485 254.942 91.5365C249.796 90.2245 244.378 90.4414 239.354 92.1604C234.33 93.8795 229.918 97.0259 226.659 101.214C223.356 96.8402 218.843 93.5289 213.676 91.6888C208.51 89.8486 202.917 89.5603 197.588 90.8594C192.259 92.1584 187.428 94.988 183.692 98.9985C179.955 103.009 177.477 108.025 176.564 113.426C173.128 112.583 169.525 112.714 166.159 113.802C162.793 114.891 159.798 116.895 157.509 119.589C155.22 122.284 153.729 125.562 153.202 129.056C152.676 132.55 153.135 136.121 154.528 139.369C155.921 142.617 158.193 145.413 161.088 147.443C163.984 149.473 167.389 150.656 170.921 150.861C174.453 151.066 177.973 150.283 181.084 148.601C184.195 146.919 186.776 144.404 188.536 141.339C194.526 145.37 201.841 146.942 208.962 145.728C216.083 144.514 222.461 140.607 226.773 134.819C229.212 137.905 232.291 140.426 235.798 142.211C239.305 143.996 243.158 145.001 247.091 145.158C251.024 145.315 254.945 144.62 258.583 143.121C262.222 141.622 265.493 139.354 268.171 136.473C269.375 140.596 271.876 144.223 275.303 146.817C278.731 149.412 282.903 150.837 287.204 150.881C298.224 150.881 307.189 141.596 307.189 130.134C307.189 118.672 298.186 109.358 287.166 109.358Z" fill="#005A44" stroke="#005A44" stroke-width="2.10526" stroke-linecap="round" stroke-linejoin="round"/>
<path d="M188.537 142.735C188.258 142.736 187.986 142.654 187.754 142.5C187.521 142.346 187.34 142.127 187.233 141.871L175.252 113.967C175.101 113.619 175.096 113.226 175.236 112.874C175.376 112.522 175.65 112.24 175.999 112.09C176.347 111.94 176.741 111.934 177.093 112.074C177.446 112.214 177.728 112.488 177.878 112.836L189.85 140.749C189.929 140.922 189.972 141.109 189.977 141.299C189.982 141.489 189.949 141.678 189.88 141.856C189.811 142.033 189.707 142.194 189.574 142.331C189.442 142.467 189.283 142.576 189.108 142.65C188.925 142.714 188.731 142.743 188.537 142.735Z" fill="#FAFAFA" stroke="#005A44" stroke-width="2.10526" stroke-miterlimit="10"/>
<path d="M226.775 136.691C226.271 136.691 225.786 136.491 225.429 136.134C225.073 135.778 224.872 135.294 224.872 134.79L224.758 101.175C224.758 100.671 224.958 100.187 225.315 99.831C225.672 99.4746 226.156 99.2743 226.661 99.2743C227.166 99.2743 227.65 99.4746 228.007 99.831C228.364 100.187 228.564 100.671 228.564 101.175L228.679 134.781C228.679 135.285 228.478 135.768 228.121 136.125C227.764 136.481 227.28 136.682 226.775 136.682V136.691Z" fill="#FAFAFA" stroke="#005A44" stroke-width="2.10526" stroke-miterlimit="10"/>
<path d="M268.134 138.345C267.944 138.343 267.755 138.318 267.572 138.269C267.333 138.196 267.11 138.077 266.917 137.918C266.723 137.759 266.563 137.564 266.446 137.343C266.328 137.122 266.255 136.881 266.231 136.632C266.207 136.383 266.233 136.132 266.306 135.893L273.253 113.017C273.4 112.534 273.732 112.13 274.178 111.892C274.623 111.654 275.145 111.602 275.628 111.748C276.111 111.895 276.517 112.227 276.755 112.671C276.993 113.116 277.045 113.637 276.898 114.12L270.037 136.995C269.915 137.4 269.661 137.751 269.317 137.996C268.972 138.24 268.556 138.363 268.134 138.345Z" fill="#FAFAFA" stroke="#005A44" stroke-width="2.10526" stroke-miterlimit="10"/>
<path d="M276.93 120.953C276.93 120.953 299.36 111.706 305.213 111.706C311.066 111.706 307.659 113.654 305.213 116.087C302.767 118.52 301.559 121.2 302.777 123.88L276.93 120.953Z" fill="#84F5B7" stroke="#005A44" stroke-width="2.10526" stroke-linecap="round" stroke-linejoin="round"/>
<path d="M143.543 128.023C143.543 128.023 200.842 115.355 313.748 128.023C313.748 128.023 315.698 127.291 314.48 126.313C313.262 125.334 265.222 116.809 220.114 117.303C175.005 117.797 144.761 121.656 143.543 128.023Z" fill="#84F5B7" stroke="#005A44" stroke-width="2.10526" stroke-linecap="round" stroke-linejoin="round"/>
<path d="M263.022 99.7689H199.632C197.34 99.7689 195.482 101.624 195.482 103.913V119.974C195.482 122.263 197.34 124.118 199.632 124.118H263.022C265.313 124.118 267.171 122.263 267.171 119.974V103.913C267.171 101.624 265.313 99.7689 263.022 99.7689Z" fill="#84F5B7" stroke="#005A44" stroke-width="2.10526" stroke-linecap="round" stroke-linejoin="round"/>
<path d="M263.822 99.7971H198.833C197.898 99.8438 197.019 100.26 196.391 100.953C195.763 101.646 195.436 102.56 195.483 103.494V106.973H267.181V103.494C267.204 103.031 267.135 102.568 266.979 102.131C266.823 101.695 266.581 101.293 266.269 100.95C265.957 100.606 265.58 100.328 265.16 100.13C264.74 99.9321 264.285 99.819 263.822 99.7971Z" fill="#FAFAFA" stroke="#005A44" stroke-width="2.10526" stroke-linecap="round" stroke-linejoin="round"/>
<path d="M271.561 123.148H191.098C188.807 123.148 186.949 125.003 186.949 127.292V146.28C186.949 148.569 188.807 150.424 191.098 150.424H271.561C273.853 150.424 275.711 148.569 275.711 146.28V127.292C275.711 125.003 273.853 123.148 271.561 123.148Z" fill="#84F5B7" stroke="#005A44" stroke-width="2.10526" stroke-linecap="round" stroke-linejoin="round"/>
<path d="M271.558 123.148H191.048C189.949 123.151 188.896 123.588 188.12 124.365C187.344 125.142 186.908 126.194 186.908 127.292V131.16H275.746V127.263C275.742 126.718 275.631 126.179 275.418 125.678C275.206 125.176 274.896 124.72 274.507 124.338C274.118 123.956 273.657 123.654 273.151 123.45C272.645 123.246 272.104 123.143 271.558 123.148Z" fill="#FAFAFA" stroke="#005A44" stroke-width="2.10526" stroke-linecap="round" stroke-linejoin="round"/>
<path d="M218.895 133.859H222.549V135.323C222.549 137.001 223.217 138.611 224.405 139.798C225.594 140.985 227.206 141.652 228.887 141.652H234.502C236.183 141.652 237.795 140.985 238.983 139.798C240.172 138.611 240.84 137.001 240.84 135.323V133.621H244.247" stroke="#005A44" stroke-width="6.31579" stroke-linecap="round" stroke-linejoin="round"/>
<path d="M276.698 149.217H184.873C180.877 149.214 177.018 150.664 174.014 153.294C172.073 154.988 170.557 157.114 169.589 159.5L148.881 210.526C148.191 212.229 147.091 213.735 145.678 214.91C144.265 216.086 142.583 216.895 140.782 217.265L116.534 222.226C111.929 223.164 107.611 225.177 103.934 228.099C98.3333 232.575 94.5385 238.92 93.2466 245.966L90.2869 262.123C89.9551 263.949 90.0349 265.827 90.5205 267.619C91.0061 269.411 91.8854 271.072 93.0943 272.482C94.2711 273.852 95.7313 274.95 97.3743 275.702C99.0172 276.453 100.804 276.84 102.611 276.835H130.485L152.373 290.14H259.911L319.238 281.587L332.218 280.636C333.739 280.535 335.209 280.054 336.495 279.237C337.78 278.42 338.839 277.293 339.575 275.961C341.408 272.731 342.479 269.126 342.705 265.421C343.029 257.19 340.802 248.951 336.681 241.034C332.561 233.117 326.527 232.157 318.6 205.87C310.673 179.582 307.151 167.588 299.224 158.721C291.297 149.854 276.698 149.217 276.698 149.217Z" fill="#84F5B7" stroke="#005A44" stroke-width="2.10526" stroke-linecap="round" stroke-linejoin="round"/>
<path d="M153.619 225.887V279.108C153.619 280.956 154.354 282.728 155.662 284.034C156.97 285.341 158.745 286.075 160.595 286.075H244.341C245.641 286.075 246.927 285.799 248.113 285.267C249.299 284.734 250.358 283.957 251.222 282.986C252.723 281.304 253.553 279.129 253.553 276.875V228.405" stroke="#005A44" stroke-width="2.10526" stroke-linecap="round" stroke-linejoin="round"/>
<path d="M118.248 233.327H319.049" stroke="#005A44" stroke-width="2.10526" stroke-linecap="round" stroke-linejoin="round"/>
<path d="M249.415 237.29H239.271C238.766 237.29 238.282 237.09 237.925 236.733C237.568 236.377 237.367 235.893 237.367 235.389C237.367 234.885 237.568 234.401 237.925 234.045C238.282 233.689 238.766 233.488 239.271 233.488H249.415C249.92 233.488 250.404 233.689 250.761 234.045C251.118 234.401 251.319 234.885 251.319 235.389C251.319 235.639 251.269 235.886 251.174 236.116C251.078 236.347 250.938 236.557 250.761 236.733C250.584 236.91 250.374 237.05 250.144 237.145C249.913 237.241 249.665 237.29 249.415 237.29Z" fill="#005A44" stroke="#005A44" stroke-width="2.10526" stroke-linecap="round" stroke-linejoin="round"/>
<path d="M196.758 153.97H193.713C188.657 153.972 183.725 155.528 179.585 158.427C175.446 161.326 172.301 165.428 170.578 170.174L152.763 219.328C152.573 219.853 152.513 220.416 152.588 220.969C152.662 221.521 152.868 222.049 153.189 222.505C153.51 222.962 153.936 223.335 154.432 223.592C154.927 223.85 155.478 223.984 156.036 223.985H246.244C247.036 223.985 247.82 223.829 248.552 223.526C249.283 223.223 249.948 222.779 250.507 222.219C251.067 221.66 251.51 220.996 251.812 220.265C252.115 219.534 252.27 218.75 252.268 217.959V161.735C252.27 160.715 252.07 159.706 251.68 158.764C251.29 157.822 250.718 156.966 249.997 156.245C249.276 155.523 248.419 154.951 247.477 154.561C246.534 154.171 245.523 153.97 244.503 153.97H196.758Z" fill="#263238"/>
<path d="M243.39 190.844C243.39 190.844 252.602 198.286 255.009 203.76C257.417 209.234 260.719 224.773 260.719 224.773H204.838C204.838 224.773 219.741 207.666 225.879 202.23C232.017 196.794 243.39 190.844 243.39 190.844Z" fill="#6F40D8"/>
<path d="M243.39 190.844C243.39 190.844 252.602 198.286 255.009 203.76C257.417 209.234 260.719 224.773 260.719 224.773H204.838C204.838 224.773 219.741 207.666 225.879 202.23C232.017 196.794 243.39 190.844 243.39 190.844Z" stroke="#005A44" stroke-width="2.10526" stroke-linecap="round" stroke-linejoin="round"/>
<path d="M204.838 224.774H232.141C231.913 219.28 231.132 208.066 228.506 205.291C227.002 203.685 224.433 204.521 221.996 205.994C215.002 213.131 204.838 224.774 204.838 224.774Z" stroke="#005A44" stroke-width="2.10526" stroke-linecap="round" stroke-linejoin="round"/>
<path d="M215.137 162.61C215.137 162.61 210.759 167.865 210.759 168.958C210.828 170.321 210.356 171.656 209.446 172.674C208.342 173.777 205.059 177.056 205.059 178.804C205.059 180.553 208.561 180.116 208.561 180.116C208.561 180.116 204.183 185.818 205.496 187.776C206.81 189.734 223.254 203.98 223.254 203.98L242.288 188.878L240.974 186.027C241.943 184.57 242.613 182.936 242.944 181.218C243.163 179.023 244.705 170.926 237.234 165.67C229.764 160.414 218.429 159.768 215.137 162.61Z" fill="#FAFAFA" stroke="#005A44" stroke-width="2.10526" stroke-linecap="round" stroke-linejoin="round"/>
<path d="M241 186.026C241.969 184.569 242.639 182.934 242.97 181.217C243.189 179.021 244.731 170.924 237.26 165.668C233.614 163.225 229.439 161.682 225.079 161.163C226.716 162.114 229.837 164.167 230.028 166.105C230.247 168.738 227.401 168.957 227.401 168.957C227.401 168.957 222.138 171.143 222.795 172.235C223.452 173.328 226.307 175.305 226.307 175.961C226.307 176.617 224.556 179.24 226.088 179.677C227.62 180.114 228.495 176.398 230.694 176.826C232.892 177.253 233.758 177.044 233.101 180.542C232.445 184.039 230.475 184.923 230.475 185.579C230.475 186.235 237.137 187.423 241.286 186.643L241 186.026Z" fill="#005A44" stroke="#005A44" stroke-width="2.10526" stroke-linecap="round" stroke-linejoin="round"/>
<path d="M216.457 161.516C216.457 161.516 231.798 147.507 233.768 147.507C235.738 147.507 248.233 154.73 248.671 157.572C249.109 160.414 245.606 179.678 245.606 179.678L216.457 161.516Z" fill="#FAFAFA" stroke="#005A44" stroke-width="2.10526" stroke-linecap="round" stroke-linejoin="round"/>
<path d="M216.457 161.517L245.606 179.679C245.606 179.679 246.282 175.972 246.996 171.572L221.358 157.126C218.589 159.569 216.457 161.517 216.457 161.517Z" fill="#005A44" stroke="#005A44" stroke-width="2.10526" stroke-linecap="round" stroke-linejoin="round"/>
<path d="M205.934 158.228C205.934 158.228 250.205 191.492 250.862 188.878C251.518 186.265 250.424 182.311 247.359 178.585C244.295 174.86 227.375 164.14 219.523 160.642C211.672 157.145 206.371 155.605 205.934 158.228Z" fill="#FAFAFA" stroke="#005A44" stroke-width="2.10526" stroke-linecap="round" stroke-linejoin="round"/>
<path d="M214.84 172.113C214.297 174.156 213.136 175.629 212.261 175.392C211.385 175.154 211.119 173.31 211.671 171.267C212.223 169.224 213.374 167.76 214.25 167.988C215.125 168.216 215.411 170.127 214.84 172.113Z" stroke="#005A44" stroke-width="2.10526" stroke-linecap="round" stroke-linejoin="round"/>
<path d="M214.861 172.113L228.508 177.492" stroke="#005A44" stroke-width="2.10526" stroke-linecap="round" stroke-linejoin="round"/>
<path d="M208.121 181.435C209.359 181.784 210.669 181.783 211.907 181.434C213.145 181.086 214.262 180.402 215.135 179.459" stroke="#005A44" stroke-width="2.10526" stroke-linecap="round" stroke-linejoin="round"/>
<path d="M214.479 178.149L216.458 180.772" stroke="#005A44" stroke-width="2.10526" stroke-linecap="round" stroke-linejoin="round"/>
<path d="M218.168 200.538L218.777 209.728L244.205 190.911L242.093 186.682L218.168 200.538Z" fill="#6F40D8" stroke="#005A44" stroke-width="2.10526" stroke-linecap="round" stroke-linejoin="round"/>
<path d="M183.757 225.411L179.331 226.656L172.832 203.581C172.748 203.289 172.722 202.983 172.758 202.681C172.793 202.379 172.887 202.087 173.036 201.822C173.184 201.557 173.384 201.324 173.624 201.136C173.863 200.949 174.137 200.811 174.43 200.729C174.722 200.645 175.028 200.62 175.33 200.654C175.631 200.689 175.923 200.782 176.189 200.93C176.454 201.077 176.687 201.276 176.876 201.514C177.064 201.752 177.203 202.025 177.285 202.317L183.757 225.411Z" fill="#005A44" stroke="#005A44" stroke-width="2.10526" stroke-linecap="round" stroke-linejoin="round"/>
<path d="M189.306 213.426C189.306 213.426 183.054 205.015 181.246 202.496C179.438 199.978 177.63 200.092 176.43 200.814C175.231 201.537 169.569 205.975 169.931 207.419C170.292 208.864 173.423 215.973 173.899 216.923C174.133 217.439 174.504 217.88 174.973 218.199C175.441 218.517 175.988 218.701 176.554 218.729C177.753 218.729 178.838 216.201 178.838 216.201H180.742C180.742 216.201 183.035 221.134 185.557 222.217C187.282 222.87 189.136 223.114 190.972 222.93L193.256 226.057H203.248L189.306 213.426Z" fill="#FAFAFA" stroke="#005A44" stroke-width="2.10526" stroke-linecap="round" stroke-linejoin="round"/>
<path d="M174.623 217.76C174.364 217.443 174.204 217.057 174.162 216.65C174.119 216.243 174.197 215.833 174.385 215.469C174.985 214.034 176.916 211.145 177.392 211.145C177.868 211.145 182.084 210.907 182.084 210.907" stroke="#005A44" stroke-width="2.10526" stroke-linecap="round" stroke-linejoin="round"/>
<path d="M172.824 213.425C172.824 213.425 174.984 208.739 176.069 208.264C177.154 207.789 181.608 207.78 181.608 207.78" stroke="#005A44" stroke-width="2.10526" stroke-linecap="round" stroke-linejoin="round"/>
<path d="M171.252 210.186C171.252 210.186 173.898 205.139 175.468 204.902C176.946 204.733 178.433 204.651 179.922 204.654" stroke="#005A44" stroke-width="2.10526" stroke-linecap="round" stroke-linejoin="round"/>
<path d="M196.758 153.97H193.713C188.657 153.972 183.725 155.528 179.585 158.427C175.446 161.326 172.301 165.428 170.578 170.174L152.763 219.328C152.573 219.853 152.513 220.416 152.588 220.969C152.662 221.521 152.868 222.049 153.189 222.505C153.51 222.962 153.936 223.335 154.432 223.592C154.927 223.85 155.478 223.984 156.036 223.985H246.244C247.036 223.985 247.82 223.829 248.552 223.526C249.283 223.223 249.948 222.779 250.507 222.219C251.067 221.66 251.51 220.996 251.812 220.265C252.115 219.534 252.27 218.75 252.268 217.959V161.735C252.27 160.715 252.07 159.706 251.68 158.764C251.29 157.822 250.718 156.966 249.997 156.245C249.276 155.523 248.419 154.951 247.477 154.561C246.534 154.171 245.523 153.97 244.503 153.97H196.758Z" stroke="#005A44" stroke-width="2.10526" stroke-linecap="round" stroke-linejoin="round"/>
<path d="M261.158 160.051V219.232C261.158 220.575 261.693 221.864 262.644 222.814C263.595 223.764 264.885 224.297 266.231 224.297H314.765L300.49 175.828C299.027 170.848 296.214 166.368 292.363 162.883C287.362 158.351 280.9 155.758 274.148 155.575L265.964 155.356C265.338 155.342 264.715 155.454 264.133 155.683C263.55 155.913 263.02 156.257 262.572 156.694C262.124 157.131 261.769 157.654 261.526 158.23C261.283 158.807 261.158 159.426 261.158 160.051Z" fill="#263238"/>
<path d="M300.957 177.368L263.1 223.196C263.99 223.904 265.093 224.292 266.231 224.298H283.931L306.895 197.545L300.957 177.368Z" fill="#FAFAFA"/>
<path d="M312.513 216.629L309.496 206.374L295.098 224.299H305.728L312.513 216.629Z" fill="#FAFAFA"/>
<path d="M261.158 160.051V219.232C261.158 220.575 261.693 221.864 262.644 222.814C263.595 223.764 264.885 224.297 266.231 224.297H314.765L300.49 175.828C299.027 170.848 296.214 166.368 292.363 162.883V162.883C287.362 158.351 280.9 155.758 274.148 155.575L265.964 155.356C265.338 155.342 264.715 155.454 264.133 155.683C263.55 155.913 263.02 156.257 262.572 156.694C262.124 157.131 261.769 157.654 261.526 158.23C261.283 158.807 261.158 159.426 261.158 160.051V160.051Z" stroke="#005A44" stroke-width="2.10526" stroke-linecap="round" stroke-linejoin="round"/>
<path d="M186.29 155.12C182.689 156.256 179.399 158.205 176.674 160.815C173.95 163.426 171.864 166.628 170.578 170.174L152.763 219.328C152.573 219.853 152.513 220.415 152.588 220.968C152.662 221.521 152.868 222.048 153.189 222.505C153.51 222.962 153.936 223.334 154.432 223.592C154.927 223.849 155.478 223.984 156.036 223.985H186.29V155.12Z" stroke="#005A44" stroke-width="2.10526" stroke-linecap="round" stroke-linejoin="round"/>
<path d="M90.2871 262.17C90.2871 262.17 87.0039 264.527 87.0039 267.378C87.0039 270.23 88.9072 274.031 90.8105 274.668C92.7139 275.305 93.0945 272.53 93.0945 272.53C93.0945 272.53 90.4109 265.82 90.2871 262.17Z" fill="#005A44" stroke="#005A44" stroke-width="2.10526" stroke-linecap="round" stroke-linejoin="round"/>
<path d="M97.0996 234.017L94.285 233.486C92.8235 233.21 91.4146 234.169 91.1382 235.629L87.7762 253.381C87.4997 254.84 88.4604 256.247 89.922 256.523L92.7365 257.055C94.1981 257.331 95.6069 256.372 95.8833 254.912L99.2453 237.16C99.5218 235.7 98.5611 234.293 97.0996 234.017Z" fill="#FAFAFA" stroke="#005A44" stroke-width="2.10526" stroke-linecap="round" stroke-linejoin="round"/>
<path d="M342.677 247.108H340.46C338.005 247.108 336.016 249.096 336.016 251.547V264.215C336.016 266.667 338.005 268.654 340.46 268.654H342.677C345.132 268.654 347.122 266.667 347.122 264.215V251.547C347.122 249.096 345.132 247.108 342.677 247.108Z" fill="#FAFAFA" stroke="#005A44" stroke-width="2.10526" stroke-linecap="round" stroke-linejoin="round"/>
<path d="M123.321 311.42C139.704 311.42 152.985 298.157 152.985 281.796C152.985 265.436 139.704 252.173 123.321 252.173C106.939 252.173 93.6582 265.436 93.6582 281.796C93.6582 298.157 106.939 311.42 123.321 311.42Z" fill="#005A44"/>
<path d="M123.321 311.42C139.704 311.42 152.985 298.157 152.985 281.796C152.985 265.436 139.704 252.173 123.321 252.173C106.939 252.173 93.6582 265.436 93.6582 281.796C93.6582 298.157 106.939 311.42 123.321 311.42Z" stroke="#005A44" stroke-width="2.10526" stroke-linecap="round" stroke-linejoin="round"/>
<path d="M123.318 301.28C134.092 301.28 142.827 292.557 142.827 281.797C142.827 271.037 134.092 262.314 123.318 262.314C112.543 262.314 103.809 271.037 103.809 281.797C103.809 292.557 112.543 301.28 123.318 301.28Z" fill="#FAFAFA" stroke="#005A44" stroke-width="2.10526" stroke-linecap="round" stroke-linejoin="round"/>
<path d="M123.318 295.89C131.113 295.89 137.431 289.58 137.431 281.796C137.431 274.012 131.113 267.702 123.318 267.702C115.524 267.702 109.205 274.012 109.205 281.796C109.205 289.58 115.524 295.89 123.318 295.89Z" fill="#FAFAFA" stroke="#005A44" stroke-width="2.10526" stroke-linecap="round" stroke-linejoin="round"/>
<path d="M316.896 295.958C324.706 281.576 319.362 263.595 304.96 255.796C290.559 247.997 272.553 253.333 264.744 267.715C256.934 282.097 262.278 300.079 276.68 307.878C291.081 315.677 309.086 310.341 316.896 295.958Z" fill="#005A44"/>
<path d="M316.896 295.958C324.706 281.576 319.362 263.595 304.96 255.796C290.559 247.997 272.553 253.333 264.744 267.715C256.934 282.097 262.278 300.079 276.68 307.878C291.081 315.677 309.086 310.341 316.896 295.958Z" stroke="#005A44" stroke-width="2.10526" stroke-linecap="round" stroke-linejoin="round"/>
<path d="M308.502 290C313.042 280.242 308.801 268.655 299.03 264.122C289.258 259.588 277.657 263.823 273.117 273.581C268.577 283.34 272.818 294.926 282.589 299.46C292.361 303.993 303.962 299.758 308.502 290Z" fill="#FAFAFA" stroke="#005A44" stroke-width="2.10526" stroke-linecap="round" stroke-linejoin="round"/>
<path d="M294.728 295.316C302.219 293.164 306.544 285.355 304.389 277.874C302.234 270.394 294.415 266.074 286.924 268.226C279.434 270.378 275.108 278.187 277.263 285.668C279.418 293.148 287.238 297.468 294.728 295.316Z" fill="#FAFAFA" stroke="#005A44" stroke-width="2.10526" stroke-linecap="round" stroke-linejoin="round"/>
<path d="M157.236 218.045C159.53 223.111 160.091 227.825 158.397 228.576C156.703 229.327 153.534 225.82 151.241 220.754C148.947 215.688 148.386 210.965 150.08 210.214C151.774 209.463 154.933 212.97 157.236 218.045Z" fill="#005A44" stroke="#005A44" stroke-width="2.10526" stroke-linecap="round" stroke-linejoin="round"/>
<path d="M2 311.419H430" stroke="#005A44" stroke-width="2.10526" stroke-linecap="round" stroke-linejoin="round"/>
</svg>
