<svg width="1232" height="423" viewBox="0 0 1232 423" fill="none" xmlns="http://www.w3.org/2000/svg">
<rect width="1232" height="423" rx="32" fill="#191C20"/>
<path d="M770.382 105.274C766.137 102.964 764.205 104.884 762.664 102.964C761.122 101.045 766.908 96.0266 755.336 91.018C755.336 91.018 754.565 80.2311 738.748 79.8415C722.932 79.4518 727.138 90.6284 722.922 93.3275C718.706 96.0266 717.526 91.7879 713.282 94.487C709.037 97.1861 710.969 102.575 707.496 103.345C704.022 104.114 699.388 99.8757 695.124 102.575C690.861 105.274 690.889 107.583 688.957 107.583C687.026 107.583 683.171 106.044 680.849 107.583C678.527 109.123 675.834 111.052 675.834 111.052H773.465C773.465 111.052 774.626 107.583 770.382 105.274Z" fill="#304952" stroke="#304952" stroke-width="2.10526" stroke-linecap="round" stroke-linejoin="round"/>
<path d="M525.651 162.307C523.51 161.138 522.53 162.107 521.749 161.138C520.969 160.169 523.9 157.631 518.047 155.103C518.047 155.103 517.657 149.657 509.673 149.467C501.688 149.277 503.829 154.913 501.679 156.272C499.528 157.631 498.957 155.493 496.816 156.861C494.675 158.23 495.645 160.948 493.885 161.338C492.124 161.727 489.792 159.579 487.651 160.948C485.51 162.316 485.51 163.476 484.539 163.476C483.569 163.476 481.608 162.697 480.447 163.476C479.286 164.255 477.906 165.225 477.906 165.225H527.212C527.212 165.225 527.792 163.476 525.651 162.307Z" fill="#304952" stroke="#304952" stroke-width="2.10526" stroke-linecap="round" stroke-linejoin="round"/>
<path d="M615.108 77.7221C612.967 76.5531 611.987 77.5225 611.206 76.5531C610.426 75.5837 613.357 73.0462 607.504 70.5182C607.504 70.5182 607.114 65.0725 599.13 64.8824C591.145 64.6923 593.287 70.3281 591.136 71.6872C588.985 73.0462 588.414 70.9078 586.273 72.2764C584.132 73.645 585.102 76.3631 583.342 76.7527C581.581 77.1424 579.25 74.9945 577.108 76.3631C574.967 77.7316 574.967 78.8911 573.996 78.8911C573.026 78.8911 571.065 78.1118 569.904 78.8911C568.743 79.6704 567.363 80.6398 567.363 80.6398H616.669C616.669 80.6398 617.249 78.8911 615.108 77.7221Z" fill="#304952" stroke="#304952" stroke-width="2.10526" stroke-linecap="round" stroke-linejoin="round"/>
<path d="M743.09 335.42H788.989C788.114 329.822 784.507 330.81 784.031 322.114C783.793 317.743 787.838 312.335 787.495 306.595C787.2 301.843 782.527 297.015 782.166 291.597C781.842 286.712 785.83 281.295 785.439 276.03C785.078 271.06 780.338 266.279 779.92 261.109C779.501 255.939 783.412 250.588 782.956 245.494C782.499 240.4 777.674 235.696 777.169 230.668C776.665 225.641 780.415 219.938 779.844 214.987C779.225 209.741 774.267 205.198 773.591 200.36C772.839 194.972 776.361 189.222 775.495 184.574C774.486 178.872 769.175 174.747 768.062 170.547C765.978 162.715 766.235 155.16 763.78 154.675C761.153 154.143 760.553 161.546 758.564 169.815C757.613 173.977 752.369 178.188 751.522 183.89C750.827 188.509 754.501 194.116 753.901 199.486C753.359 204.285 748.524 208.904 748.058 214.131C747.611 219.045 751.541 224.462 751.151 229.594C750.761 234.726 746.079 239.355 745.755 244.42C745.432 249.486 749.476 254.808 749.2 259.807C748.924 264.806 744.318 269.786 744.08 274.728C743.833 279.946 747.953 285.182 747.754 290.058C747.535 295.427 742.995 300.35 742.824 305.045C742.615 310.748 746.802 315.994 746.678 320.328C746.393 329.746 742.082 327.798 741.92 335.372L743.09 335.42Z" fill="#84F5B7"/>
<path opacity="0.5" d="M743.09 335.42H788.989C788.114 329.822 784.507 330.81 784.031 322.114C783.793 317.743 787.838 312.335 787.495 306.595C787.2 301.843 782.527 297.015 782.166 291.597C781.842 286.712 785.83 281.295 785.439 276.03C785.078 271.06 780.338 266.279 779.92 261.109C779.501 255.939 783.412 250.588 782.956 245.494C782.499 240.4 777.674 235.696 777.169 230.668C776.665 225.641 780.415 219.938 779.844 214.987C779.225 209.741 774.267 205.198 773.591 200.36C772.839 194.972 776.361 189.222 775.495 184.574C774.486 178.872 769.175 174.747 768.062 170.547C765.978 162.715 766.235 155.16 763.78 154.675C761.153 154.143 760.553 161.546 758.564 169.815C757.613 173.977 752.369 178.188 751.522 183.89C750.827 188.509 754.501 194.116 753.901 199.486C753.359 204.285 748.524 208.904 748.058 214.131C747.611 219.045 751.541 224.462 751.151 229.594C750.761 234.726 746.079 239.355 745.755 244.42C745.432 249.486 749.476 254.808 749.2 259.807C748.924 264.806 744.318 269.786 744.08 274.728C743.833 279.946 747.953 285.182 747.754 290.058C747.535 295.427 742.995 300.35 742.824 305.045C742.615 310.748 746.802 315.994 746.678 320.328C746.393 329.746 742.082 327.798 741.92 335.372L743.09 335.42Z" fill="#FAFAFA"/>
<path d="M762.781 169.739V333.31" stroke="#005A44" stroke-width="2.10526" stroke-miterlimit="10"/>
<path d="M769.936 186.884L762.475 193.318L756.365 185.183" stroke="#005A44" stroke-width="2.10526" stroke-miterlimit="10"/>
<path d="M769.936 215.358L762.475 221.792L756.365 213.656" stroke="#005A44" stroke-width="2.10526" stroke-miterlimit="10"/>
<path d="M769.936 242.13L762.475 248.573L756.365 240.438" stroke="#005A44" stroke-width="2.10526" stroke-miterlimit="10"/>
<path d="M769.936 273.996L762.475 280.43L756.365 272.295" stroke="#005A44" stroke-width="2.10526" stroke-miterlimit="10"/>
<path d="M769.936 306.196L762.475 312.63L756.365 304.494" stroke="#005A44" stroke-width="2.10526" stroke-miterlimit="10"/>
<path d="M434.02 335.421H479.89C479.005 329.823 475.407 330.812 474.922 322.116C474.684 317.744 478.729 312.336 478.386 306.596C478.101 301.844 473.428 297.016 473.066 291.599C472.733 286.714 476.721 281.296 476.34 276.031C475.969 271.061 471.239 266.28 470.82 261.11C470.402 255.94 474.313 250.589 473.856 245.495C473.399 240.401 468.574 235.697 468.061 230.669C467.547 225.642 471.315 219.939 470.735 214.988C470.126 209.742 465.158 205.199 464.492 200.361C463.74 194.973 467.252 189.223 466.395 184.576C465.386 178.873 460.076 174.749 458.953 170.548C456.945 162.764 457.202 155.161 454.747 154.686C452.12 154.154 451.521 161.557 449.532 169.826C448.58 173.988 443.336 178.198 442.48 183.901C441.795 188.52 445.468 194.127 444.859 199.497C444.326 204.296 439.492 208.915 439.016 214.142C438.578 219.056 442.499 224.473 442.118 229.605C441.738 234.737 437.046 239.365 436.722 244.431C436.399 249.496 440.443 254.819 440.167 259.818C439.891 264.817 435.276 269.797 435.038 274.739C434.79 279.956 438.921 285.193 438.721 290.069C438.492 295.438 433.963 300.361 433.782 305.056C433.582 310.758 437.769 316.005 437.588 320.338C437.312 329.757 432.992 327.808 432.83 335.383L434.02 335.421Z" fill="#84F5B7"/>
<path opacity="0.5" d="M434.02 335.421H479.89C479.005 329.823 475.407 330.812 474.922 322.116C474.684 317.744 478.729 312.336 478.386 306.596C478.101 301.844 473.428 297.016 473.066 291.599C472.733 286.714 476.721 281.296 476.34 276.031C475.969 271.061 471.239 266.28 470.82 261.11C470.402 255.94 474.313 250.589 473.856 245.495C473.399 240.401 468.574 235.697 468.061 230.669C467.547 225.642 471.315 219.939 470.735 214.988C470.126 209.742 465.158 205.199 464.492 200.361C463.74 194.973 467.252 189.223 466.395 184.576C465.386 178.873 460.076 174.749 458.953 170.548C456.945 162.764 457.202 155.161 454.747 154.686C452.12 154.154 451.521 161.557 449.532 169.826C448.58 173.988 443.336 178.198 442.48 183.901C441.795 188.52 445.468 194.127 444.859 199.497C444.326 204.296 439.492 208.915 439.016 214.142C438.578 219.056 442.499 224.473 442.118 229.605C441.738 234.737 437.046 239.365 436.722 244.431C436.399 249.496 440.443 254.819 440.167 259.818C439.891 264.817 435.276 269.797 435.038 274.739C434.79 279.956 438.921 285.193 438.721 290.069C438.492 295.438 433.963 300.361 433.782 305.056C433.582 310.758 437.769 316.005 437.588 320.338C437.312 329.757 432.992 327.808 432.83 335.383L434.02 335.421Z" fill="#FAFAFA"/>
<path d="M453.738 169.739V333.31" stroke="#005A44" stroke-width="2.10526" stroke-miterlimit="10"/>
<path d="M460.902 186.884L453.432 193.318L447.322 185.183" stroke="#005A44" stroke-width="2.10526" stroke-miterlimit="10"/>
<path d="M460.902 215.358L453.432 221.792L447.322 213.656" stroke="#005A44" stroke-width="2.10526" stroke-miterlimit="10"/>
<path d="M460.902 242.13L453.432 248.573L447.322 240.438" stroke="#005A44" stroke-width="2.10526" stroke-miterlimit="10"/>
<path d="M460.902 273.996L453.432 280.43L447.322 272.295" stroke="#005A44" stroke-width="2.10526" stroke-miterlimit="10"/>
<path d="M460.902 306.196L453.432 312.63L447.322 304.494" stroke="#005A44" stroke-width="2.10526" stroke-miterlimit="10"/>
<path d="M675.465 335.42H709.724C709.068 331.239 706.375 331.98 706.023 325.489C705.842 322.229 708.877 318.19 708.602 313.894C708.392 310.359 704.9 306.738 704.633 302.698C704.386 299.049 707.364 295 707.069 291.075C706.803 287.35 703.263 283.786 702.949 279.927C702.635 276.069 705.556 272.058 705.242 268.256C704.928 264.455 701.293 260.948 700.912 257.194C700.531 253.44 703.339 249.173 702.911 245.476C702.454 241.551 698.742 238.167 698.247 234.556C697.686 230.526 700.313 226.23 699.694 222.761C698.942 218.504 694.936 215.424 694.136 212.307C692.556 206.481 692.747 200.779 690.967 200.427C689.188 200.076 688.56 205.559 687.065 211.737C686.323 214.845 682.44 217.99 681.803 222.248C681.289 225.698 684.03 229.851 683.582 233.9C683.183 237.483 679.566 240.933 679.214 244.839C678.881 248.507 681.822 252.556 681.527 256.386C681.232 260.216 677.72 263.676 677.501 267.458C677.282 271.241 680.28 275.213 680.08 278.958C679.88 282.702 676.426 286.409 676.274 290.096C676.093 293.993 679.129 297.928 679.024 301.501C678.853 305.512 675.465 309.19 675.331 312.687C675.189 316.945 678.31 320.87 678.186 324.092C677.977 331.125 674.751 329.67 674.637 335.325L675.465 335.42Z" fill="#84F5B7"/>
<path opacity="0.5" d="M675.465 335.42H709.724C709.068 331.239 706.375 331.98 706.023 325.489C705.842 322.229 708.877 318.19 708.602 313.894C708.392 310.359 704.9 306.738 704.633 302.698C704.386 299.049 707.364 295 707.069 291.075C706.803 287.35 703.263 283.786 702.949 279.927C702.635 276.069 705.556 272.058 705.242 268.256C704.928 264.455 701.293 260.948 700.912 257.194C700.531 253.44 703.339 249.173 702.911 245.476C702.454 241.551 698.742 238.167 698.247 234.556C697.686 230.526 700.313 226.23 699.694 222.761C698.942 218.504 694.936 215.424 694.136 212.307C692.556 206.481 692.747 200.779 690.967 200.427C689.188 200.076 688.56 205.559 687.065 211.737C686.323 214.845 682.44 217.99 681.803 222.248C681.289 225.698 684.03 229.851 683.582 233.9C683.183 237.483 679.566 240.933 679.214 244.839C678.881 248.507 681.822 252.556 681.527 256.386C681.232 260.216 677.72 263.676 677.501 267.458C677.282 271.241 680.28 275.213 680.08 278.958C679.88 282.702 676.426 286.409 676.274 290.096C676.093 293.993 679.129 297.928 679.024 301.501C678.853 305.512 675.465 309.19 675.331 312.687C675.189 316.945 678.31 320.87 678.186 324.092C677.977 331.125 674.751 329.67 674.637 335.325L675.465 335.42Z" fill="#FAFAFA"/>
<path d="M690.168 211.67V333.843" stroke="#005A44" stroke-width="2.10526" stroke-miterlimit="10"/>
<path d="M695.52 224.481L689.943 229.29L685.375 223.207" stroke="#005A44" stroke-width="2.10526" stroke-miterlimit="10"/>
<path d="M695.52 245.741L689.943 250.55L685.375 244.477" stroke="#005A44" stroke-width="2.10526" stroke-miterlimit="10"/>
<path d="M695.52 265.747L689.943 270.556L685.375 264.473" stroke="#005A44" stroke-width="2.10526" stroke-miterlimit="10"/>
<path d="M695.52 289.536L689.943 294.354L685.375 288.272" stroke="#005A44" stroke-width="2.10526" stroke-miterlimit="10"/>
<path d="M695.52 313.59L689.943 318.399L685.375 312.326" stroke="#005A44" stroke-width="2.10526" stroke-miterlimit="10"/>
<path d="M784.908 335.42H819.168C818.511 331.239 815.818 331.98 815.466 325.489C815.285 322.229 818.321 318.19 818.045 313.894C817.835 310.359 814.343 306.738 814.076 302.698C813.829 299.049 816.808 295 816.513 291.075C816.246 287.35 812.706 283.786 812.392 279.927C812.078 276.069 815 272.058 814.685 268.256C814.371 264.455 810.736 260.948 810.355 257.194C809.975 253.44 812.782 249.173 812.354 245.476C811.897 241.551 808.186 238.167 807.691 234.556C807.129 230.526 809.756 226.23 809.137 222.761C808.386 218.504 804.379 215.424 803.58 212.307C802 206.481 802.19 200.779 800.411 200.427C798.631 200.076 798.003 205.559 796.509 211.737C795.766 214.845 791.884 217.99 791.246 222.248C790.732 225.698 793.473 229.851 793.026 233.9C792.626 237.483 789.01 240.933 788.658 244.839C788.324 248.507 791.265 252.556 790.97 256.386C790.675 260.216 787.163 263.676 786.945 267.458C786.726 271.241 789.723 275.213 789.524 278.958C789.324 282.702 785.869 286.409 785.717 290.096C785.536 293.993 788.572 297.928 788.467 301.501C788.296 305.512 784.908 309.19 784.775 312.687C784.632 316.945 787.753 320.87 787.63 324.092C787.42 331.125 784.194 329.67 784.08 335.325L784.908 335.42Z" fill="#84F5B7"/>
<path opacity="0.5" d="M784.908 335.42H819.168C818.511 331.239 815.818 331.98 815.466 325.489C815.285 322.229 818.321 318.19 818.045 313.894C817.835 310.359 814.343 306.738 814.076 302.698C813.829 299.049 816.808 295 816.513 291.075C816.246 287.35 812.706 283.786 812.392 279.927C812.078 276.069 815 272.058 814.685 268.256C814.371 264.455 810.736 260.948 810.355 257.194C809.975 253.44 812.782 249.173 812.354 245.476C811.897 241.551 808.186 238.167 807.691 234.556C807.129 230.526 809.756 226.23 809.137 222.761C808.386 218.504 804.379 215.424 803.58 212.307C802 206.481 802.19 200.779 800.411 200.427C798.631 200.076 798.003 205.559 796.509 211.737C795.766 214.845 791.884 217.99 791.246 222.248C790.732 225.698 793.473 229.851 793.026 233.9C792.626 237.483 789.01 240.933 788.658 244.839C788.324 248.507 791.265 252.556 790.97 256.386C790.675 260.216 787.163 263.676 786.945 267.458C786.726 271.241 789.723 275.213 789.524 278.958C789.324 282.702 785.869 286.409 785.717 290.096C785.536 293.993 788.572 297.928 788.467 301.501C788.296 305.512 784.908 309.19 784.775 312.687C784.632 316.945 787.753 320.87 787.63 324.092C787.42 331.125 784.194 329.67 784.08 335.325L784.908 335.42Z" fill="#FAFAFA"/>
<path d="M799.613 211.67V333.843" stroke="#005A44" stroke-width="2.10526" stroke-miterlimit="10"/>
<path d="M804.959 224.481L799.382 229.29L794.814 223.207" stroke="#005A44" stroke-width="2.10526" stroke-miterlimit="10"/>
<path d="M804.959 245.741L799.382 250.55L794.814 244.477" stroke="#005A44" stroke-width="2.10526" stroke-miterlimit="10"/>
<path d="M804.959 265.747L799.382 270.556L794.814 264.473" stroke="#005A44" stroke-width="2.10526" stroke-miterlimit="10"/>
<path d="M804.959 289.536L799.382 294.354L794.814 288.272" stroke="#005A44" stroke-width="2.10526" stroke-miterlimit="10"/>
<path d="M804.959 313.59L799.382 318.399L794.814 312.326" stroke="#005A44" stroke-width="2.10526" stroke-miterlimit="10"/>
<path d="M637.675 335.42H671.935C671.269 331.239 668.585 331.98 668.223 325.489C668.043 322.229 671.078 318.19 670.812 313.894C670.593 310.359 667.11 306.738 666.834 302.698C666.587 299.049 669.565 295 669.28 291.075C669.004 287.35 665.473 283.786 665.159 279.927C664.845 276.069 667.767 272.067 667.424 268.256C667.081 264.445 663.484 260.948 663.094 257.194C662.704 253.44 665.53 249.173 665.092 245.476C664.636 241.551 660.934 238.167 660.429 234.556C659.868 230.526 662.494 226.23 661.876 222.761C661.124 218.504 657.165 215.424 656.328 212.307C654.805 206.481 654.986 200.779 653.149 200.427C651.312 200.076 650.741 205.559 649.257 211.737C648.505 214.845 644.632 217.99 643.994 222.248C643.471 225.698 646.221 229.851 645.764 233.9C645.365 237.483 641.758 240.933 641.406 244.839C641.073 248.507 644.004 252.556 643.718 256.386C643.433 260.216 639.912 263.676 639.683 267.458C639.455 271.241 642.471 275.213 642.262 278.958C642.053 282.702 638.608 286.409 638.455 290.096C638.265 293.993 641.31 297.928 641.196 301.501C641.034 305.512 637.637 309.19 637.513 312.687C637.361 316.945 640.492 320.87 640.368 324.092C640.159 331.125 636.942 329.67 636.828 335.325L637.675 335.42Z" fill="#84F5B7"/>
<path opacity="0.5" d="M637.675 335.42H671.935C671.269 331.239 668.585 331.98 668.223 325.489C668.043 322.229 671.078 318.19 670.812 313.894C670.593 310.359 667.11 306.738 666.834 302.698C666.587 299.049 669.565 295 669.28 291.075C669.004 287.35 665.473 283.786 665.159 279.927C664.845 276.069 667.767 272.067 667.424 268.256C667.081 264.445 663.484 260.948 663.094 257.194C662.704 253.44 665.53 249.173 665.092 245.476C664.636 241.551 660.934 238.167 660.429 234.556C659.868 230.526 662.494 226.23 661.876 222.761C661.124 218.504 657.165 215.424 656.328 212.307C654.805 206.481 654.986 200.779 653.149 200.427C651.312 200.076 650.741 205.559 649.257 211.737C648.505 214.845 644.632 217.99 643.994 222.248C643.471 225.698 646.221 229.851 645.764 233.9C645.365 237.483 641.758 240.933 641.406 244.839C641.073 248.507 644.004 252.556 643.718 256.386C643.433 260.216 639.912 263.676 639.683 267.458C639.455 271.241 642.471 275.213 642.262 278.958C642.053 282.702 638.608 286.409 638.455 290.096C638.265 293.993 641.31 297.928 641.196 301.501C641.034 305.512 637.637 309.19 637.513 312.687C637.361 316.945 640.492 320.87 640.368 324.092C640.159 331.125 636.942 329.67 636.828 335.325L637.675 335.42Z" fill="#FAFAFA"/>
<path d="M652.396 211.67V333.843" stroke="#005A44" stroke-width="2.10526" stroke-miterlimit="10"/>
<path d="M657.747 224.481L652.17 229.29L647.611 223.207" stroke="#005A44" stroke-width="2.10526" stroke-miterlimit="10"/>
<path d="M657.747 245.741L652.17 250.55L647.611 244.477" stroke="#005A44" stroke-width="2.10526" stroke-miterlimit="10"/>
<path d="M657.747 265.747L652.17 270.556L647.611 264.473" stroke="#005A44" stroke-width="2.10526" stroke-miterlimit="10"/>
<path d="M657.747 289.536L652.17 294.354L647.611 288.272" stroke="#005A44" stroke-width="2.10526" stroke-miterlimit="10"/>
<path d="M657.747 313.59L652.17 318.399L647.611 312.326" stroke="#005A44" stroke-width="2.10526" stroke-miterlimit="10"/>
<path d="M571.153 335.421H605.413C604.756 331.239 602.063 331.98 601.711 325.489C601.53 322.229 604.566 318.19 604.29 313.894C604.081 310.359 600.588 306.738 600.322 302.699C600.074 299.049 603.053 295.001 602.767 291.075C602.491 287.35 598.961 283.786 598.637 279.927C598.314 276.069 601.254 272.068 600.912 268.257C600.569 264.446 596.962 260.948 596.582 257.194C596.201 253.44 599.008 249.173 598.58 245.476C598.123 241.551 594.412 238.167 593.917 234.556C593.355 230.526 595.982 226.23 595.363 222.762C594.612 218.504 590.605 215.425 589.806 212.307C588.254 206.462 588.445 200.817 586.618 200.456C584.648 200.066 584.21 205.588 582.716 211.766C581.974 214.873 578.091 218.019 577.453 222.277C576.939 225.727 579.68 229.88 579.233 233.929C578.833 237.512 575.217 240.962 574.865 244.868C574.532 248.536 577.472 252.585 577.177 256.415C576.882 260.245 573.37 263.704 573.152 267.487C572.933 271.269 575.93 275.242 575.731 278.986C575.531 282.731 572.076 286.438 571.924 290.125C571.743 294.022 574.779 297.956 574.674 301.53C574.503 305.54 571.115 309.218 570.982 312.716C570.839 316.973 573.961 320.899 573.837 324.12C573.627 331.153 570.401 329.699 570.287 335.354L571.153 335.421Z" fill="#84F5B7"/>
<path opacity="0.5" d="M571.153 335.421H605.413C604.756 331.239 602.063 331.98 601.711 325.489C601.53 322.229 604.566 318.19 604.29 313.894C604.081 310.359 600.588 306.738 600.322 302.699C600.074 299.049 603.053 295.001 602.767 291.075C602.491 287.35 598.961 283.786 598.637 279.927C598.314 276.069 601.254 272.068 600.912 268.257C600.569 264.446 596.962 260.948 596.582 257.194C596.201 253.44 599.008 249.173 598.58 245.476C598.123 241.551 594.412 238.167 593.917 234.556C593.355 230.526 595.982 226.23 595.363 222.762C594.612 218.504 590.605 215.425 589.806 212.307C588.254 206.462 588.445 200.817 586.618 200.456C584.648 200.066 584.21 205.588 582.716 211.766C581.974 214.873 578.091 218.019 577.453 222.277C576.939 225.727 579.68 229.88 579.233 233.929C578.833 237.512 575.217 240.962 574.865 244.868C574.532 248.536 577.472 252.585 577.177 256.415C576.882 260.245 573.37 263.704 573.152 267.487C572.933 271.269 575.93 275.242 575.731 278.986C575.531 282.731 572.076 286.438 571.924 290.125C571.743 294.022 574.779 297.956 574.674 301.53C574.503 305.54 571.115 309.218 570.982 312.716C570.839 316.973 573.961 320.899 573.837 324.12C573.627 331.153 570.401 329.699 570.287 335.354L571.153 335.421Z" fill="#FAFAFA"/>
<path d="M585.855 211.67V333.843" stroke="#005A44" stroke-width="2.10526" stroke-miterlimit="10"/>
<path d="M591.207 224.481L585.63 229.29L581.062 223.207" stroke="#005A44" stroke-width="2.10526" stroke-miterlimit="10"/>
<path d="M591.207 245.741L585.63 250.55L581.062 244.477" stroke="#005A44" stroke-width="2.10526" stroke-miterlimit="10"/>
<path d="M591.207 265.747L585.63 270.556L581.062 264.473" stroke="#005A44" stroke-width="2.10526" stroke-miterlimit="10"/>
<path d="M591.207 289.536L585.63 294.354L581.062 288.272" stroke="#005A44" stroke-width="2.10526" stroke-miterlimit="10"/>
<path d="M591.207 313.59L585.63 318.399L581.062 312.326" stroke="#005A44" stroke-width="2.10526" stroke-miterlimit="10"/>
<path d="M487.437 324.651H516.196C515.644 321.135 513.389 321.8 513.084 316.307C512.932 313.57 515.473 310.177 515.254 306.575C515.073 303.61 512.142 300.568 511.914 297.176C511.714 294.106 514.217 290.713 513.969 287.415C513.741 284.288 510.772 281.295 510.505 278.054C510.239 274.813 512.703 271.458 512.408 268.265C512.113 265.072 509.106 262.125 508.783 258.97C508.459 255.815 510.819 252.241 510.458 249.134C510.077 245.845 506.965 242.994 506.537 239.962C506.07 236.588 508.278 232.977 507.755 230.059C507.127 226.486 503.796 223.901 503.092 221.268C501.788 216.355 501.95 211.622 500.408 211.318C498.866 211.013 498.39 215.623 497.144 220.821C496.516 223.426 493.261 226.068 492.728 229.641C492.29 232.54 494.631 236.056 494.213 239.421C493.88 242.433 490.844 245.332 490.549 248.611C490.273 251.69 492.738 255.083 492.452 258.305C492.167 261.527 489.274 264.416 489.074 267.6C488.874 270.783 491.405 274.11 491.234 277.246C491.063 280.382 488.17 283.509 488.017 286.607C487.865 289.877 490.454 293.184 490.32 296.216C490.187 299.58 487.332 302.669 487.227 305.615C487.104 309.179 489.73 312.477 489.645 315.195C489.473 321.106 486.79 319.88 486.666 324.632L487.437 324.651Z" fill="#84F5B7"/>
<path opacity="0.5" d="M487.437 324.651H516.196C515.644 321.135 513.389 321.8 513.084 316.307C512.932 313.57 515.473 310.177 515.254 306.575C515.073 303.61 512.142 300.568 511.914 297.176C511.714 294.106 514.217 290.713 513.969 287.415C513.741 284.288 510.772 281.295 510.505 278.054C510.239 274.813 512.703 271.458 512.408 268.265C512.113 265.072 509.106 262.125 508.783 258.97C508.459 255.815 510.819 252.241 510.458 249.134C510.077 245.845 506.965 242.994 506.537 239.962C506.07 236.588 508.278 232.977 507.755 230.059C507.127 226.486 503.796 223.901 503.092 221.268C501.788 216.355 501.95 211.622 500.408 211.318C498.866 211.013 498.39 215.623 497.144 220.821C496.516 223.426 493.261 226.068 492.728 229.641C492.29 232.54 494.631 236.056 494.213 239.421C493.88 242.433 490.844 245.332 490.549 248.611C490.273 251.69 492.738 255.083 492.452 258.305C492.167 261.527 489.274 264.416 489.074 267.6C488.874 270.783 491.405 274.11 491.234 277.246C491.063 280.382 488.17 283.509 488.017 286.607C487.865 289.877 490.454 293.184 490.32 296.216C490.187 299.58 487.332 302.669 487.227 305.615C487.104 309.179 489.73 312.477 489.645 315.195C489.473 321.106 486.79 319.88 486.666 324.632L487.437 324.651Z" fill="#FAFAFA"/>
<path d="M499.781 220.756V323.321" stroke="#005A44" stroke-width="2.10526" stroke-miterlimit="10"/>
<path d="M504.27 231.505L499.587 235.544L495.762 230.441" stroke="#005A44" stroke-width="2.10526" stroke-miterlimit="10"/>
<path d="M504.27 249.363L499.587 253.402L495.762 248.299" stroke="#005A44" stroke-width="2.10526" stroke-miterlimit="10"/>
<path d="M504.27 266.145L499.587 270.185L495.762 265.091" stroke="#005A44" stroke-width="2.10526" stroke-miterlimit="10"/>
<path d="M504.27 286.132L499.587 290.162L495.762 285.068" stroke="#005A44" stroke-width="2.10526" stroke-miterlimit="10"/>
<path d="M504.27 306.319L499.587 310.358L495.762 305.255" stroke="#005A44" stroke-width="2.10526" stroke-miterlimit="10"/>
<path d="M531.003 335.42H573.028C572.219 330.288 568.917 331.191 568.479 323.236C568.26 319.235 571.972 314.274 571.658 308.981C571.391 304.637 567.109 300.199 566.776 295.238C566.481 290.762 570.126 285.801 569.774 280.982C569.44 276.42 565.101 272.049 564.72 267.306C564.34 262.564 567.918 257.669 567.499 252.993C567.08 248.317 562.665 244.031 562.189 239.422C561.713 234.812 565.177 229.585 564.644 225.052C564.083 220.233 559.534 216.08 558.934 211.651C558.249 206.709 561.475 201.435 560.714 197.177C559.762 191.959 554.928 188.177 553.9 184.328C551.997 177.152 552.234 170.234 549.979 169.777C547.581 169.302 547.029 176.078 545.221 183.663C544.269 187.464 539.511 191.323 538.768 196.55C538.131 200.779 541.5 205.93 540.948 210.806C540.453 215.206 536.018 219.435 535.59 224.225C535.181 228.73 538.778 233.729 538.445 238.395C538.112 243.062 533.801 247.338 533.506 251.976C533.211 256.614 536.922 261.48 536.665 266.08C536.408 270.68 532.183 275.223 531.964 279.747C531.736 284.499 535.523 289.365 535.333 293.803C535.133 298.716 530.965 303.231 530.813 307.527C530.632 312.744 534.467 317.563 534.343 321.535C534.086 330.165 530.137 328.378 529.994 335.316L531.003 335.42Z" fill="#84F5B7"/>
<path opacity="0.5" d="M531.003 335.42H573.028C572.219 330.288 568.917 331.191 568.479 323.236C568.26 319.235 571.972 314.274 571.658 308.981C571.391 304.637 567.109 300.199 566.776 295.238C566.481 290.762 570.126 285.801 569.774 280.982C569.44 276.42 565.101 272.049 564.72 267.306C564.34 262.564 567.918 257.669 567.499 252.993C567.08 248.317 562.665 244.031 562.189 239.422C561.713 234.812 565.177 229.585 564.644 225.052C564.083 220.233 559.534 216.08 558.934 211.651C558.249 206.709 561.475 201.435 560.714 197.177C559.762 191.959 554.928 188.177 553.9 184.328C551.997 177.152 552.234 170.234 549.979 169.777C547.581 169.302 547.029 176.078 545.221 183.663C544.269 187.464 539.511 191.323 538.768 196.55C538.131 200.779 541.5 205.93 540.948 210.806C540.453 215.206 536.018 219.435 535.59 224.225C535.181 228.73 538.778 233.729 538.445 238.395C538.112 243.062 533.801 247.338 533.506 251.976C533.211 256.614 536.922 261.48 536.665 266.08C536.408 270.68 532.183 275.223 531.964 279.747C531.736 284.499 535.523 289.365 535.333 293.803C535.133 298.716 530.965 303.231 530.813 307.527C530.632 312.744 534.467 317.563 534.343 321.535C534.086 330.165 530.137 328.378 529.994 335.316L531.003 335.42Z" fill="#FAFAFA"/>
<path d="M549.049 183.605V333.49" stroke="#005A44" stroke-width="2.10526" stroke-miterlimit="10"/>
<path d="M555.604 199.314L548.762 205.216L543.166 197.765" stroke="#005A44" stroke-width="2.10526" stroke-miterlimit="10"/>
<path d="M555.604 225.404L548.762 231.306L543.166 223.854" stroke="#005A44" stroke-width="2.10526" stroke-miterlimit="10"/>
<path d="M555.604 249.941L548.762 255.843L543.166 248.382" stroke="#005A44" stroke-width="2.10526" stroke-miterlimit="10"/>
<path d="M555.604 279.137L548.762 285.03L543.166 277.578" stroke="#005A44" stroke-width="2.10526" stroke-miterlimit="10"/>
<path d="M555.604 308.638L548.762 314.54L543.166 307.089" stroke="#005A44" stroke-width="2.10526" stroke-miterlimit="10"/>
<path d="M823.192 323.425L816.055 320.526L808.908 323.425L801.77 320.526L794.623 323.425L787.486 320.526L780.349 323.425L773.202 320.526L766.064 323.425L758.917 320.526L751.78 323.425L744.642 320.526L737.495 323.425L730.358 320.526L723.22 323.425L716.073 320.526L708.936 323.425L701.789 320.526L694.651 323.425L687.514 320.526L680.367 323.425L673.23 320.526L666.083 323.425L658.945 320.526L651.808 323.425L644.661 320.526L637.523 323.425L630.386 320.526L623.239 323.425L616.101 320.526L608.964 323.425L601.817 320.526L594.679 323.425L587.542 320.526L580.405 323.425L573.258 320.526L566.12 323.425L558.983 320.526L551.845 323.425L544.708 320.526L537.561 323.425L530.423 320.526L523.286 323.425L516.148 320.526L509.011 323.425L501.873 320.526L494.736 323.425L487.589 320.526L480.452 323.425L473.314 320.526L466.177 323.425L459.039 320.526L451.902 323.425L444.764 320.526L437.627 323.425L430.489 320.526L423.352 323.425L416.214 320.526L410.229 322.959V335.428H824.201V323.016L823.192 323.425Z" fill="#005A44"/>
<path d="M687.166 133.358C682.788 133.359 678.54 134.843 675.118 137.569C674.268 132.333 671.906 127.46 668.322 123.546C664.738 119.632 660.087 116.848 654.942 115.537C649.796 114.225 644.378 114.441 639.354 116.16C634.33 117.879 629.918 121.026 626.659 125.214C623.356 120.84 618.843 117.529 613.676 115.689C608.51 113.849 602.917 113.56 597.588 114.859C592.259 116.158 587.428 118.988 583.692 122.998C579.955 127.009 577.477 132.025 576.564 137.426C573.128 136.583 569.525 136.714 566.159 137.802C562.793 138.891 559.798 140.895 557.509 143.589C555.22 146.284 553.729 149.562 553.202 153.056C552.676 156.55 553.135 160.121 554.528 163.369C555.921 166.617 558.193 169.413 561.088 171.443C563.984 173.473 567.389 174.656 570.921 174.861C574.453 175.066 577.973 174.283 581.084 172.601C584.195 170.919 586.776 168.404 588.536 165.339C594.526 169.37 601.841 170.942 608.962 169.728C616.083 168.514 622.461 164.607 626.773 158.819C629.212 161.905 632.291 164.426 635.798 166.211C639.305 167.996 643.158 169.001 647.091 169.158C651.024 169.315 654.945 168.62 658.583 167.121C662.222 165.622 665.493 163.354 668.171 160.473C669.375 164.596 671.876 168.223 675.303 170.817C678.731 173.412 682.903 174.837 687.204 174.881C698.224 174.881 707.189 165.596 707.189 154.134C707.189 142.672 698.186 133.358 687.166 133.358Z" fill="#005A44" stroke="#005A44" stroke-width="2.10526" stroke-linecap="round" stroke-linejoin="round"/>
<path d="M588.537 166.735C588.258 166.736 587.986 166.654 587.754 166.5C587.521 166.346 587.34 166.127 587.233 165.871L575.252 137.967C575.101 137.619 575.096 137.226 575.236 136.874C575.376 136.522 575.65 136.24 575.999 136.09C576.347 135.94 576.741 135.934 577.093 136.074C577.446 136.214 577.728 136.488 577.878 136.836L589.85 164.749C589.929 164.922 589.972 165.109 589.977 165.299C589.982 165.489 589.949 165.678 589.88 165.856C589.811 166.033 589.707 166.194 589.574 166.331C589.442 166.467 589.283 166.576 589.108 166.65C588.925 166.714 588.731 166.743 588.537 166.735Z" fill="#FAFAFA" stroke="#005A44" stroke-width="2.10526" stroke-miterlimit="10"/>
<path d="M626.775 160.691C626.271 160.691 625.786 160.491 625.429 160.134C625.073 159.778 624.872 159.294 624.872 158.79L624.758 125.175C624.758 124.671 624.958 124.187 625.315 123.831C625.672 123.475 626.156 123.274 626.661 123.274C627.166 123.274 627.65 123.475 628.007 123.831C628.364 124.187 628.564 124.671 628.564 125.175L628.679 158.781C628.679 159.285 628.478 159.768 628.121 160.125C627.764 160.481 627.28 160.682 626.775 160.682V160.691Z" fill="#FAFAFA" stroke="#005A44" stroke-width="2.10526" stroke-miterlimit="10"/>
<path d="M668.134 162.345C667.944 162.343 667.755 162.318 667.572 162.269C667.333 162.196 667.11 162.077 666.917 161.918C666.723 161.759 666.563 161.564 666.446 161.343C666.328 161.122 666.255 160.881 666.231 160.632C666.207 160.383 666.233 160.132 666.306 159.893L673.253 137.017C673.4 136.534 673.732 136.13 674.178 135.892C674.623 135.654 675.145 135.602 675.628 135.748C676.111 135.895 676.517 136.227 676.755 136.671C676.993 137.116 677.045 137.637 676.898 138.12L670.037 160.995C669.915 161.4 669.661 161.751 669.317 161.996C668.972 162.24 668.556 162.363 668.134 162.345Z" fill="#FAFAFA" stroke="#005A44" stroke-width="2.10526" stroke-miterlimit="10"/>
<path d="M676.93 144.953C676.93 144.953 699.36 135.706 705.213 135.706C711.066 135.706 707.659 137.654 705.213 140.087C702.767 142.52 701.559 145.2 702.777 147.88L676.93 144.953Z" fill="#84F5B7" stroke="#005A44" stroke-width="2.10526" stroke-linecap="round" stroke-linejoin="round"/>
<path d="M543.543 152.023C543.543 152.023 600.842 139.355 713.748 152.023C713.748 152.023 715.698 151.291 714.48 150.313C713.262 149.334 665.222 140.809 620.114 141.303C575.005 141.797 544.761 145.656 543.543 152.023Z" fill="#84F5B7" stroke="#005A44" stroke-width="2.10526" stroke-linecap="round" stroke-linejoin="round"/>
<path d="M663.022 123.769H599.632C597.34 123.769 595.482 125.624 595.482 127.913V143.974C595.482 146.263 597.34 148.118 599.632 148.118H663.022C665.313 148.118 667.171 146.263 667.171 143.974V127.913C667.171 125.624 665.313 123.769 663.022 123.769Z" fill="#84F5B7" stroke="#005A44" stroke-width="2.10526" stroke-linecap="round" stroke-linejoin="round"/>
<path d="M663.822 123.797H598.833C597.898 123.844 597.019 124.26 596.391 124.953C595.763 125.646 595.436 126.56 595.483 127.494V130.973H667.181V127.494C667.204 127.031 667.135 126.568 666.979 126.131C666.823 125.695 666.581 125.293 666.269 124.95C665.957 124.606 665.58 124.328 665.16 124.13C664.74 123.932 664.285 123.819 663.822 123.797Z" fill="#FAFAFA" stroke="#005A44" stroke-width="2.10526" stroke-linecap="round" stroke-linejoin="round"/>
<path d="M671.561 147.148H591.098C588.807 147.148 586.949 149.003 586.949 151.292V170.28C586.949 172.569 588.807 174.424 591.098 174.424H671.561C673.853 174.424 675.711 172.569 675.711 170.28V151.292C675.711 149.003 673.853 147.148 671.561 147.148Z" fill="#84F5B7" stroke="#005A44" stroke-width="2.10526" stroke-linecap="round" stroke-linejoin="round"/>
<path d="M671.558 147.148H591.048C589.949 147.151 588.896 147.588 588.12 148.365C587.344 149.142 586.908 150.194 586.908 151.292V155.16H675.746V151.263C675.742 150.718 675.631 150.179 675.418 149.678C675.206 149.176 674.896 148.72 674.507 148.338C674.118 147.956 673.657 147.654 673.151 147.45C672.645 147.246 672.104 147.143 671.558 147.148Z" fill="#FAFAFA" stroke="#005A44" stroke-width="2.10526" stroke-linecap="round" stroke-linejoin="round"/>
<path d="M618.895 157.859H622.549V159.323C622.549 161.001 623.217 162.611 624.405 163.798C625.594 164.985 627.206 165.652 628.887 165.652H634.502C636.183 165.652 637.795 164.985 638.983 163.798C640.172 162.611 640.84 161.001 640.84 159.323V157.621H644.247" stroke="#005A44" stroke-width="6.31579" stroke-linecap="round" stroke-linejoin="round"/>
<path d="M676.698 173.217H584.873C580.877 173.214 577.018 174.664 574.014 177.294C572.073 178.988 570.557 181.114 569.589 183.5L548.881 234.526C548.191 236.229 547.091 237.735 545.678 238.91C544.265 240.086 542.583 240.895 540.782 241.265L516.534 246.226C511.929 247.164 507.611 249.177 503.934 252.099C498.333 256.575 494.538 262.92 493.247 269.966L490.287 286.123C489.955 287.949 490.035 289.827 490.521 291.619C491.006 293.411 491.885 295.072 493.094 296.482C494.271 297.852 495.731 298.95 497.374 299.702C499.017 300.453 500.804 300.84 502.611 300.835H530.485L552.373 314.14H659.911L719.238 305.587L732.218 304.636C733.739 304.535 735.209 304.054 736.495 303.237C737.78 302.42 738.839 301.293 739.575 299.961C741.408 296.731 742.479 293.126 742.705 289.421C743.029 281.19 740.802 272.951 736.681 265.034C732.561 257.117 726.527 256.157 718.6 229.87C710.673 203.582 707.151 191.588 699.224 182.721C691.297 173.854 676.698 173.217 676.698 173.217Z" fill="#84F5B7" stroke="#005A44" stroke-width="2.10526" stroke-linecap="round" stroke-linejoin="round"/>
<path d="M553.619 249.887V303.108C553.619 304.956 554.354 306.728 555.662 308.034C556.97 309.341 558.745 310.075 560.595 310.075H644.341C645.641 310.075 646.927 309.799 648.113 309.267C649.299 308.734 650.358 307.957 651.222 306.986C652.723 305.304 653.553 303.129 653.553 300.875V252.405" stroke="#005A44" stroke-width="2.10526" stroke-linecap="round" stroke-linejoin="round"/>
<path d="M518.248 257.327H719.049" stroke="#005A44" stroke-width="2.10526" stroke-linecap="round" stroke-linejoin="round"/>
<path d="M649.415 261.29H639.271C638.766 261.29 638.282 261.09 637.925 260.733C637.568 260.377 637.367 259.893 637.367 259.389C637.367 258.885 637.568 258.401 637.925 258.045C638.282 257.689 638.766 257.488 639.271 257.488H649.415C649.92 257.488 650.404 257.689 650.761 258.045C651.118 258.401 651.319 258.885 651.319 259.389C651.319 259.639 651.269 259.886 651.174 260.116C651.078 260.347 650.938 260.557 650.761 260.733C650.584 260.91 650.374 261.05 650.144 261.145C649.913 261.241 649.665 261.29 649.415 261.29Z" fill="#005A44" stroke="#005A44" stroke-width="2.10526" stroke-linecap="round" stroke-linejoin="round"/>
<path d="M596.758 177.97H593.713C588.657 177.972 583.725 179.528 579.585 182.427C575.446 185.326 572.301 189.428 570.578 194.174L552.763 243.328C552.573 243.853 552.513 244.416 552.588 244.969C552.662 245.521 552.868 246.049 553.189 246.505C553.51 246.962 553.936 247.335 554.432 247.592C554.927 247.85 555.478 247.984 556.036 247.985H646.244C647.036 247.985 647.82 247.829 648.552 247.526C649.283 247.223 649.948 246.779 650.507 246.219C651.067 245.66 651.51 244.996 651.812 244.265C652.115 243.534 652.27 242.75 652.268 241.959V185.735C652.27 184.715 652.07 183.706 651.68 182.764C651.29 181.822 650.718 180.966 649.997 180.245C649.276 179.523 648.419 178.951 647.477 178.561C646.534 178.171 645.523 177.97 644.503 177.97H596.758Z" fill="#263238"/>
<path d="M643.39 214.844C643.39 214.844 652.602 222.286 655.009 227.76C657.417 233.234 660.719 248.773 660.719 248.773H604.838C604.838 248.773 619.741 231.666 625.879 226.23C632.017 220.794 643.39 214.844 643.39 214.844Z" fill="#6F40D8"/>
<path d="M643.39 214.844C643.39 214.844 652.602 222.286 655.009 227.76C657.417 233.234 660.719 248.773 660.719 248.773H604.838C604.838 248.773 619.741 231.666 625.879 226.23C632.017 220.794 643.39 214.844 643.39 214.844Z" stroke="#005A44" stroke-width="2.10526" stroke-linecap="round" stroke-linejoin="round"/>
<path d="M604.838 248.774H632.141C631.913 243.28 631.132 232.066 628.506 229.291C627.002 227.685 624.433 228.521 621.996 229.994C615.002 237.131 604.838 248.774 604.838 248.774Z" stroke="#005A44" stroke-width="2.10526" stroke-linecap="round" stroke-linejoin="round"/>
<path d="M615.137 186.61C615.137 186.61 610.759 191.865 610.759 192.958C610.828 194.321 610.356 195.656 609.446 196.674C608.342 197.777 605.059 201.056 605.059 202.804C605.059 204.553 608.561 204.116 608.561 204.116C608.561 204.116 604.183 209.818 605.496 211.776C606.81 213.734 623.254 227.98 623.254 227.98L642.288 212.878L640.974 210.027C641.943 208.57 642.613 206.936 642.944 205.218C643.163 203.023 644.705 194.926 637.234 189.67C629.764 184.414 618.429 183.768 615.137 186.61Z" fill="#FAFAFA" stroke="#005A44" stroke-width="2.10526" stroke-linecap="round" stroke-linejoin="round"/>
<path d="M641 210.026C641.969 208.569 642.639 206.934 642.97 205.217C643.189 203.021 644.731 194.924 637.26 189.668C633.614 187.225 629.439 185.682 625.079 185.163C626.716 186.114 629.837 188.167 630.028 190.105C630.247 192.738 627.401 192.957 627.401 192.957C627.401 192.957 622.138 195.143 622.795 196.235C623.452 197.328 626.307 199.305 626.307 199.961C626.307 200.617 624.556 203.24 626.088 203.677C627.62 204.114 628.495 200.398 630.694 200.826C632.892 201.253 633.758 201.044 633.101 204.542C632.445 208.039 630.475 208.923 630.475 209.579C630.475 210.235 637.137 211.423 641.286 210.643L641 210.026Z" fill="#005A44" stroke="#005A44" stroke-width="2.10526" stroke-linecap="round" stroke-linejoin="round"/>
<path d="M616.457 185.516C616.457 185.516 631.798 171.507 633.768 171.507C635.738 171.507 648.233 178.73 648.671 181.572C649.109 184.414 645.606 203.678 645.606 203.678L616.457 185.516Z" fill="#FAFAFA" stroke="#005A44" stroke-width="2.10526" stroke-linecap="round" stroke-linejoin="round"/>
<path d="M616.457 185.517L645.606 203.679C645.606 203.679 646.282 199.972 646.996 195.572L621.358 181.126C618.589 183.569 616.457 185.517 616.457 185.517Z" fill="#005A44" stroke="#005A44" stroke-width="2.10526" stroke-linecap="round" stroke-linejoin="round"/>
<path d="M605.934 182.228C605.934 182.228 650.205 215.492 650.862 212.878C651.518 210.265 650.424 206.311 647.359 202.585C644.295 198.86 627.375 188.14 619.523 184.642C611.672 181.145 606.371 179.605 605.934 182.228Z" fill="#FAFAFA" stroke="#005A44" stroke-width="2.10526" stroke-linecap="round" stroke-linejoin="round"/>
<path d="M614.84 196.113C614.297 198.156 613.136 199.629 612.261 199.392C611.385 199.154 611.119 197.31 611.671 195.267C612.223 193.224 613.374 191.76 614.25 191.988C615.125 192.216 615.411 194.127 614.84 196.113Z" stroke="#005A44" stroke-width="2.10526" stroke-linecap="round" stroke-linejoin="round"/>
<path d="M614.861 196.113L628.508 201.492" stroke="#005A44" stroke-width="2.10526" stroke-linecap="round" stroke-linejoin="round"/>
<path d="M608.121 205.435C609.359 205.784 610.669 205.783 611.907 205.434C613.145 205.086 614.262 204.402 615.135 203.459" stroke="#005A44" stroke-width="2.10526" stroke-linecap="round" stroke-linejoin="round"/>
<path d="M614.479 202.149L616.458 204.772" stroke="#005A44" stroke-width="2.10526" stroke-linecap="round" stroke-linejoin="round"/>
<path d="M618.168 224.538L618.777 233.728L644.205 214.911L642.093 210.682L618.168 224.538Z" fill="#6F40D8" stroke="#005A44" stroke-width="2.10526" stroke-linecap="round" stroke-linejoin="round"/>
<path d="M583.757 249.411L579.331 250.656L572.832 227.581C572.748 227.289 572.722 226.983 572.758 226.681C572.793 226.379 572.887 226.087 573.036 225.822C573.184 225.557 573.384 225.324 573.624 225.136C573.863 224.949 574.137 224.811 574.43 224.729C574.722 224.645 575.028 224.62 575.33 224.654C575.631 224.689 575.923 224.782 576.189 224.93C576.454 225.077 576.687 225.276 576.876 225.514C577.064 225.752 577.203 226.025 577.285 226.317L583.757 249.411Z" fill="#005A44" stroke="#005A44" stroke-width="2.10526" stroke-linecap="round" stroke-linejoin="round"/>
<path d="M589.306 237.426C589.306 237.426 583.054 229.015 581.246 226.496C579.438 223.978 577.63 224.092 576.43 224.814C575.231 225.537 569.569 229.975 569.931 231.419C570.292 232.864 573.423 239.973 573.899 240.923C574.133 241.439 574.504 241.88 574.973 242.199C575.441 242.517 575.988 242.701 576.554 242.729C577.753 242.729 578.838 240.201 578.838 240.201H580.742C580.742 240.201 583.035 245.134 585.557 246.217C587.282 246.87 589.136 247.114 590.972 246.93L593.256 250.057H603.248L589.306 237.426Z" fill="#FAFAFA" stroke="#005A44" stroke-width="2.10526" stroke-linecap="round" stroke-linejoin="round"/>
<path d="M574.623 241.76C574.364 241.443 574.204 241.057 574.162 240.65C574.119 240.243 574.197 239.833 574.385 239.469C574.985 238.034 576.916 235.145 577.392 235.145C577.868 235.145 582.084 234.907 582.084 234.907" stroke="#005A44" stroke-width="2.10526" stroke-linecap="round" stroke-linejoin="round"/>
<path d="M572.824 237.425C572.824 237.425 574.984 232.739 576.069 232.264C577.154 231.789 581.608 231.78 581.608 231.78" stroke="#005A44" stroke-width="2.10526" stroke-linecap="round" stroke-linejoin="round"/>
<path d="M571.252 234.186C571.252 234.186 573.898 229.139 575.468 228.902C576.946 228.733 578.433 228.651 579.922 228.654" stroke="#005A44" stroke-width="2.10526" stroke-linecap="round" stroke-linejoin="round"/>
<path d="M596.758 177.97H593.713C588.657 177.972 583.725 179.528 579.585 182.427C575.446 185.326 572.301 189.428 570.578 194.174L552.763 243.328C552.573 243.853 552.513 244.416 552.588 244.969C552.662 245.521 552.868 246.049 553.189 246.505C553.51 246.962 553.936 247.335 554.432 247.592C554.927 247.85 555.478 247.984 556.036 247.985H646.244C647.036 247.985 647.82 247.829 648.552 247.526C649.283 247.223 649.948 246.779 650.507 246.219C651.067 245.66 651.51 244.996 651.812 244.265C652.115 243.534 652.27 242.75 652.268 241.959V185.735C652.27 184.715 652.07 183.706 651.68 182.764C651.29 181.822 650.718 180.966 649.997 180.245C649.276 179.523 648.419 178.951 647.477 178.561C646.534 178.171 645.523 177.97 644.503 177.97H596.758Z" stroke="#005A44" stroke-width="2.10526" stroke-linecap="round" stroke-linejoin="round"/>
<path d="M661.158 184.051V243.232C661.158 244.575 661.693 245.864 662.644 246.814C663.595 247.764 664.885 248.297 666.231 248.297H714.765L700.49 199.828C699.027 194.848 696.214 190.368 692.363 186.883C687.362 182.351 680.9 179.758 674.148 179.575L665.964 179.356C665.338 179.342 664.715 179.454 664.133 179.683C663.55 179.913 663.02 180.257 662.572 180.694C662.124 181.131 661.769 181.654 661.526 182.23C661.283 182.807 661.158 183.426 661.158 184.051Z" fill="#263238"/>
<path d="M700.957 201.368L663.1 247.196C663.99 247.904 665.093 248.292 666.231 248.298H683.931L706.895 221.545L700.957 201.368Z" fill="#FAFAFA"/>
<path d="M712.513 240.629L709.496 230.374L695.098 248.299H705.728L712.513 240.629Z" fill="#FAFAFA"/>
<path d="M661.158 184.051V243.232C661.158 244.575 661.693 245.864 662.644 246.814C663.595 247.764 664.885 248.297 666.231 248.297H714.765L700.49 199.828C699.027 194.848 696.214 190.368 692.363 186.883V186.883C687.362 182.351 680.9 179.758 674.148 179.575L665.964 179.356C665.338 179.342 664.715 179.454 664.133 179.683C663.55 179.913 663.02 180.257 662.572 180.694C662.124 181.131 661.769 181.654 661.526 182.23C661.283 182.807 661.158 183.426 661.158 184.051V184.051Z" stroke="#005A44" stroke-width="2.10526" stroke-linecap="round" stroke-linejoin="round"/>
<path d="M586.29 179.12C582.689 180.256 579.399 182.205 576.674 184.815C573.95 187.426 571.864 190.628 570.578 194.174L552.763 243.328C552.573 243.853 552.513 244.415 552.588 244.968C552.662 245.521 552.868 246.048 553.189 246.505C553.51 246.962 553.936 247.334 554.432 247.592C554.927 247.849 555.478 247.984 556.036 247.985H586.29V179.12Z" stroke="#005A44" stroke-width="2.10526" stroke-linecap="round" stroke-linejoin="round"/>
<path d="M490.287 286.17C490.287 286.17 487.004 288.527 487.004 291.378C487.004 294.23 488.907 298.031 490.811 298.668C492.714 299.305 493.095 296.53 493.095 296.53C493.095 296.53 490.411 289.82 490.287 286.17Z" fill="#005A44" stroke="#005A44" stroke-width="2.10526" stroke-linecap="round" stroke-linejoin="round"/>
<path d="M497.1 258.017L494.285 257.486C492.823 257.21 491.415 258.169 491.138 259.629L487.776 277.381C487.5 278.84 488.46 280.247 489.922 280.523L492.737 281.055C494.198 281.331 495.607 280.372 495.883 278.912L499.245 261.16C499.522 259.7 498.561 258.293 497.1 258.017Z" fill="#FAFAFA" stroke="#005A44" stroke-width="2.10526" stroke-linecap="round" stroke-linejoin="round"/>
<path d="M742.677 271.108H740.46C738.005 271.108 736.016 273.096 736.016 275.547V288.215C736.016 290.667 738.005 292.654 740.46 292.654H742.677C745.132 292.654 747.122 290.667 747.122 288.215V275.547C747.122 273.096 745.132 271.108 742.677 271.108Z" fill="#FAFAFA" stroke="#005A44" stroke-width="2.10526" stroke-linecap="round" stroke-linejoin="round"/>
<path d="M523.321 335.42C539.704 335.42 552.985 322.157 552.985 305.796C552.985 289.436 539.704 276.173 523.321 276.173C506.939 276.173 493.658 289.436 493.658 305.796C493.658 322.157 506.939 335.42 523.321 335.42Z" fill="#005A44"/>
<path d="M523.321 335.42C539.704 335.42 552.985 322.157 552.985 305.796C552.985 289.436 539.704 276.173 523.321 276.173C506.939 276.173 493.658 289.436 493.658 305.796C493.658 322.157 506.939 335.42 523.321 335.42Z" stroke="#005A44" stroke-width="2.10526" stroke-linecap="round" stroke-linejoin="round"/>
<path d="M523.318 325.28C534.092 325.28 542.827 316.557 542.827 305.797C542.827 295.037 534.092 286.314 523.318 286.314C512.543 286.314 503.809 295.037 503.809 305.797C503.809 316.557 512.543 325.28 523.318 325.28Z" fill="#FAFAFA" stroke="#005A44" stroke-width="2.10526" stroke-linecap="round" stroke-linejoin="round"/>
<path d="M523.318 319.89C531.113 319.89 537.431 313.58 537.431 305.796C537.431 298.012 531.113 291.702 523.318 291.702C515.524 291.702 509.205 298.012 509.205 305.796C509.205 313.58 515.524 319.89 523.318 319.89Z" fill="#FAFAFA" stroke="#005A44" stroke-width="2.10526" stroke-linecap="round" stroke-linejoin="round"/>
<path d="M716.896 319.958C724.706 305.576 719.362 287.595 704.96 279.796C690.559 271.997 672.553 277.333 664.744 291.715C656.934 306.097 662.278 324.079 676.68 331.878C691.081 339.677 709.086 334.341 716.896 319.958Z" fill="#005A44"/>
<path d="M716.896 319.958C724.706 305.576 719.362 287.595 704.96 279.796C690.559 271.997 672.553 277.333 664.744 291.715C656.934 306.097 662.278 324.079 676.68 331.878C691.081 339.677 709.086 334.341 716.896 319.958Z" stroke="#005A44" stroke-width="2.10526" stroke-linecap="round" stroke-linejoin="round"/>
<path d="M708.502 314C713.042 304.242 708.801 292.655 699.03 288.122C689.258 283.588 677.657 287.823 673.117 297.581C668.577 307.34 672.818 318.926 682.589 323.46C692.361 327.993 703.962 323.758 708.502 314Z" fill="#FAFAFA" stroke="#005A44" stroke-width="2.10526" stroke-linecap="round" stroke-linejoin="round"/>
<path d="M694.728 319.316C702.219 317.164 706.544 309.355 704.389 301.874C702.234 294.394 694.415 290.074 686.924 292.226C679.434 294.378 675.108 302.187 677.263 309.668C679.418 317.148 687.238 321.468 694.728 319.316Z" fill="#FAFAFA" stroke="#005A44" stroke-width="2.10526" stroke-linecap="round" stroke-linejoin="round"/>
<path d="M557.236 242.045C559.53 247.111 560.091 251.825 558.397 252.576C556.703 253.327 553.534 249.82 551.241 244.754C548.947 239.688 548.386 234.965 550.08 234.214C551.774 233.463 554.933 236.97 557.236 242.045Z" fill="#005A44" stroke="#005A44" stroke-width="2.10526" stroke-linecap="round" stroke-linejoin="round"/>
<path d="M402 335.419H830" stroke="#005A44" stroke-width="2.10526" stroke-linecap="round" stroke-linejoin="round"/>
<path d="M493.455 375.545V393H491.409L481.898 379.295H481.727V393H479.614V375.545H481.659L491.205 389.284H491.375V375.545H493.455ZM502.729 393.272C501.548 393.272 500.511 392.991 499.619 392.428C498.732 391.866 498.039 391.079 497.539 390.068C497.045 389.056 496.798 387.875 496.798 386.522C496.798 385.159 497.045 383.968 497.539 382.951C498.039 381.934 498.732 381.144 499.619 380.582C500.511 380.019 501.548 379.738 502.729 379.738C503.911 379.738 504.945 380.019 505.832 380.582C506.724 381.144 507.417 381.934 507.911 382.951C508.411 383.968 508.661 385.159 508.661 386.522C508.661 387.875 508.411 389.056 507.911 390.068C507.417 391.079 506.724 391.866 505.832 392.428C504.945 392.991 503.911 393.272 502.729 393.272ZM502.729 391.465C503.627 391.465 504.366 391.235 504.945 390.775C505.525 390.315 505.954 389.71 506.232 388.96C506.511 388.21 506.65 387.397 506.65 386.522C506.65 385.647 506.511 384.832 506.232 384.076C505.954 383.321 505.525 382.71 504.945 382.244C504.366 381.778 503.627 381.545 502.729 381.545C501.832 381.545 501.093 381.778 500.513 382.244C499.934 382.71 499.505 383.321 499.227 384.076C498.948 384.832 498.809 385.647 498.809 386.522C498.809 387.397 498.948 388.21 499.227 388.96C499.505 389.71 499.934 390.315 500.513 390.775C501.093 391.235 501.832 391.465 502.729 391.465ZM518.482 379.909H520.493V393.954C520.493 394.761 520.354 395.46 520.075 396.051C519.803 396.642 519.388 397.099 518.831 397.423C518.28 397.747 517.584 397.909 516.743 397.909C516.675 397.909 516.607 397.909 516.538 397.909C516.47 397.909 516.402 397.909 516.334 397.909V396.034C516.402 396.034 516.464 396.034 516.521 396.034C516.578 396.034 516.641 396.034 516.709 396.034C517.322 396.034 517.771 395.852 518.055 395.488C518.339 395.13 518.482 394.619 518.482 393.954V379.909ZM519.47 377.727C519.078 377.727 518.74 377.593 518.456 377.326C518.178 377.059 518.038 376.738 518.038 376.363C518.038 375.988 518.178 375.667 518.456 375.4C518.74 375.133 519.078 375 519.47 375C519.862 375 520.197 375.133 520.476 375.4C520.76 375.667 520.902 375.988 520.902 376.363C520.902 376.738 520.76 377.059 520.476 377.326C520.197 377.593 519.862 377.727 519.47 377.727ZM529.495 393.272C528.313 393.272 527.276 392.991 526.384 392.428C525.498 391.866 524.805 391.079 524.305 390.068C523.81 389.056 523.563 387.875 523.563 386.522C523.563 385.159 523.81 383.968 524.305 382.951C524.805 381.934 525.498 381.144 526.384 380.582C527.276 380.019 528.313 379.738 529.495 379.738C530.677 379.738 531.711 380.019 532.597 380.582C533.489 381.144 534.183 381.934 534.677 382.951C535.177 383.968 535.427 385.159 535.427 386.522C535.427 387.875 535.177 389.056 534.677 390.068C534.183 391.079 533.489 391.866 532.597 392.428C531.711 392.991 530.677 393.272 529.495 393.272ZM529.495 391.465C530.393 391.465 531.131 391.235 531.711 390.775C532.29 390.315 532.719 389.71 532.998 388.96C533.276 388.21 533.415 387.397 533.415 386.522C533.415 385.647 533.276 384.832 532.998 384.076C532.719 383.321 532.29 382.71 531.711 382.244C531.131 381.778 530.393 381.545 529.495 381.545C528.597 381.545 527.859 381.778 527.279 382.244C526.7 382.71 526.271 383.321 525.992 384.076C525.714 384.832 525.575 385.647 525.575 386.522C525.575 387.397 525.714 388.21 525.992 388.96C526.271 389.71 526.7 390.315 527.279 390.775C527.859 391.235 528.597 391.465 529.495 391.465ZM546.747 387.647V379.909H548.759V393H546.747V390.784H546.611C546.304 391.448 545.827 392.014 545.179 392.48C544.531 392.94 543.713 393.17 542.724 393.17C541.906 393.17 541.179 392.991 540.543 392.633C539.906 392.269 539.406 391.724 539.043 390.997C538.679 390.264 538.497 389.34 538.497 388.227V379.909H540.509V388.09C540.509 389.045 540.776 389.806 541.31 390.375C541.849 390.943 542.537 391.227 543.372 391.227C543.872 391.227 544.381 391.099 544.898 390.843C545.42 390.588 545.858 390.196 546.21 389.667C546.568 389.139 546.747 388.465 546.747 387.647ZM552.442 393V379.909H554.386V381.886H554.522C554.761 381.238 555.192 380.713 555.817 380.309C556.442 379.906 557.147 379.704 557.931 379.704C558.079 379.704 558.263 379.707 558.485 379.713C558.707 379.718 558.874 379.727 558.988 379.738V381.784C558.92 381.767 558.763 381.741 558.519 381.707C558.281 381.667 558.028 381.647 557.761 381.647C557.124 381.647 556.556 381.781 556.056 382.048C555.562 382.309 555.17 382.673 554.88 383.139C554.596 383.599 554.454 384.125 554.454 384.715V393H552.442ZM563.384 385.125V393H561.372V379.909H563.315V381.954H563.486C563.793 381.289 564.259 380.755 564.884 380.352C565.509 379.943 566.315 379.738 567.304 379.738C568.19 379.738 568.966 379.92 569.631 380.284C570.295 380.642 570.813 381.187 571.182 381.92C571.551 382.647 571.736 383.568 571.736 384.681V393H569.724V384.818C569.724 383.789 569.457 382.988 568.923 382.414C568.389 381.835 567.656 381.545 566.724 381.545C566.082 381.545 565.509 381.684 565.003 381.963C564.503 382.241 564.108 382.647 563.818 383.181C563.528 383.715 563.384 384.363 563.384 385.125ZM580.9 393.272C579.638 393.272 578.55 392.994 577.636 392.437C576.727 391.875 576.025 391.09 575.531 390.085C575.042 389.073 574.798 387.897 574.798 386.556C574.798 385.215 575.042 384.034 575.531 383.011C576.025 381.982 576.712 381.181 577.593 380.607C578.479 380.028 579.513 379.738 580.695 379.738C581.377 379.738 582.05 379.852 582.715 380.079C583.38 380.306 583.985 380.676 584.531 381.187C585.076 381.693 585.511 382.363 585.835 383.198C586.158 384.034 586.32 385.062 586.32 386.284V387.136H576.229V385.397H584.275C584.275 384.659 584.127 384 583.832 383.42C583.542 382.84 583.127 382.383 582.587 382.048C582.053 381.713 581.423 381.545 580.695 381.545C579.894 381.545 579.201 381.744 578.616 382.142C578.036 382.534 577.59 383.045 577.278 383.676C576.965 384.306 576.809 384.982 576.809 385.704V386.863C576.809 387.852 576.979 388.69 577.32 389.377C577.667 390.059 578.147 390.579 578.761 390.937C579.374 391.289 580.087 391.465 580.9 391.465C581.428 391.465 581.906 391.392 582.332 391.244C582.763 391.09 583.136 390.863 583.448 390.562C583.761 390.255 584.002 389.875 584.173 389.42L586.116 389.965C585.911 390.625 585.567 391.204 585.085 391.704C584.602 392.198 584.005 392.585 583.295 392.863C582.585 393.136 581.786 393.272 580.9 393.272ZM590.277 397.909C589.936 397.909 589.632 397.88 589.365 397.823C589.098 397.772 588.913 397.721 588.811 397.67L589.322 395.897C589.811 396.022 590.243 396.068 590.618 396.034C590.993 396 591.325 395.832 591.615 395.531C591.911 395.235 592.18 394.755 592.425 394.09L592.8 393.068L587.959 379.909H590.141L593.754 390.34H593.891L597.504 379.909H599.686L594.129 394.909C593.879 395.585 593.57 396.144 593.2 396.588C592.831 397.036 592.402 397.369 591.913 397.585C591.43 397.801 590.885 397.909 590.277 397.909ZM609.091 397.909V379.909H611.034V381.988H611.273C611.42 381.761 611.625 381.471 611.886 381.119C612.153 380.761 612.534 380.443 613.028 380.164C613.528 379.88 614.205 379.738 615.057 379.738C616.159 379.738 617.131 380.014 617.972 380.565C618.813 381.116 619.469 381.897 619.94 382.909C620.412 383.92 620.648 385.113 620.648 386.488C620.648 387.875 620.412 389.076 619.94 390.093C619.469 391.105 618.815 391.889 617.98 392.446C617.145 392.997 616.182 393.272 615.091 393.272C614.25 393.272 613.577 393.133 613.071 392.855C612.565 392.571 612.176 392.25 611.903 391.892C611.631 391.528 611.42 391.227 611.273 390.988H611.102V397.909H609.091ZM611.068 386.454C611.068 387.443 611.213 388.315 611.503 389.071C611.793 389.821 612.216 390.409 612.773 390.835C613.33 391.255 614.011 391.465 614.818 391.465C615.659 391.465 616.361 391.244 616.923 390.801C617.491 390.352 617.918 389.75 618.202 388.994C618.491 388.232 618.636 387.386 618.636 386.454C618.636 385.534 618.494 384.704 618.21 383.965C617.932 383.221 617.509 382.633 616.94 382.201C616.378 381.764 615.67 381.545 614.818 381.545C614 381.545 613.313 381.752 612.756 382.167C612.199 382.576 611.778 383.15 611.494 383.889C611.21 384.622 611.068 385.477 611.068 386.454ZM625.727 375.545V393H623.716V375.545H625.727ZM633.263 393.306C632.434 393.306 631.681 393.15 631.005 392.838C630.329 392.519 629.792 392.062 629.394 391.465C628.996 390.863 628.798 390.136 628.798 389.284C628.798 388.534 628.945 387.926 629.241 387.46C629.536 386.988 629.931 386.619 630.425 386.352C630.92 386.085 631.465 385.886 632.062 385.755C632.664 385.619 633.269 385.511 633.877 385.431C634.673 385.329 635.317 385.252 635.812 385.201C636.312 385.144 636.675 385.051 636.903 384.92C637.136 384.789 637.252 384.562 637.252 384.238V384.17C637.252 383.329 637.022 382.676 636.562 382.21C636.107 381.744 635.417 381.511 634.491 381.511C633.531 381.511 632.778 381.721 632.232 382.142C631.687 382.562 631.303 383.011 631.082 383.488L629.173 382.806C629.513 382.011 629.968 381.392 630.536 380.948C631.11 380.5 631.735 380.187 632.411 380.011C633.093 379.829 633.763 379.738 634.423 379.738C634.843 379.738 635.326 379.789 635.871 379.892C636.423 379.988 636.954 380.19 637.465 380.497C637.982 380.803 638.411 381.267 638.752 381.886C639.093 382.505 639.263 383.335 639.263 384.375V393H637.252V391.227H637.15C637.013 391.511 636.786 391.815 636.468 392.139C636.15 392.463 635.727 392.738 635.198 392.965C634.67 393.193 634.025 393.306 633.263 393.306ZM633.57 391.5C634.366 391.5 635.036 391.343 635.582 391.031C636.133 390.718 636.548 390.315 636.826 389.821C637.11 389.326 637.252 388.806 637.252 388.261V386.42C637.167 386.522 636.979 386.616 636.69 386.701C636.406 386.781 636.076 386.852 635.701 386.914C635.332 386.971 634.971 387.022 634.619 387.068C634.272 387.107 633.991 387.142 633.775 387.17C633.252 387.238 632.763 387.349 632.309 387.502C631.86 387.65 631.496 387.875 631.218 388.176C630.945 388.471 630.809 388.875 630.809 389.386C630.809 390.085 631.067 390.613 631.585 390.971C632.107 391.323 632.769 391.5 633.57 391.5ZM644.946 385.125V393H642.935V379.909H644.878V381.954H645.048C645.355 381.289 645.821 380.755 646.446 380.352C647.071 379.943 647.878 379.738 648.866 379.738C649.753 379.738 650.528 379.92 651.193 380.284C651.858 380.642 652.375 381.187 652.744 381.92C653.114 382.647 653.298 383.568 653.298 384.681V393H651.287V384.818C651.287 383.789 651.02 382.988 650.486 382.414C649.952 381.835 649.219 381.545 648.287 381.545C647.645 381.545 647.071 381.684 646.565 381.963C646.065 382.241 645.67 382.647 645.381 383.181C645.091 383.715 644.946 384.363 644.946 385.125ZM658.985 385.125V393H656.974V379.909H658.917V381.954H659.087C659.394 381.289 659.86 380.755 660.485 380.352C661.11 379.943 661.917 379.738 662.906 379.738C663.792 379.738 664.567 379.92 665.232 380.284C665.897 380.642 666.414 381.187 666.783 381.92C667.153 382.647 667.337 383.568 667.337 384.681V393H665.326V384.818C665.326 383.789 665.059 382.988 664.525 382.414C663.991 381.835 663.258 381.545 662.326 381.545C661.684 381.545 661.11 381.684 660.604 381.963C660.104 382.241 659.71 382.647 659.42 383.181C659.13 383.715 658.985 384.363 658.985 385.125ZM676.501 393.272C675.24 393.272 674.152 392.994 673.237 392.437C672.328 391.875 671.626 391.09 671.132 390.085C670.643 389.073 670.399 387.897 670.399 386.556C670.399 385.215 670.643 384.034 671.132 383.011C671.626 381.982 672.314 381.181 673.195 380.607C674.081 380.028 675.115 379.738 676.297 379.738C676.979 379.738 677.652 379.852 678.317 380.079C678.982 380.306 679.587 380.676 680.132 381.187C680.678 381.693 681.112 382.363 681.436 383.198C681.76 384.034 681.922 385.062 681.922 386.284V387.136H671.831V385.397H679.876C679.876 384.659 679.729 384 679.433 383.42C679.143 382.84 678.729 382.383 678.189 382.048C677.655 381.713 677.024 381.545 676.297 381.545C675.496 381.545 674.803 381.744 674.217 382.142C673.638 382.534 673.192 383.045 672.879 383.676C672.567 384.306 672.411 384.982 672.411 385.704V386.863C672.411 387.852 672.581 388.69 672.922 389.377C673.268 390.059 673.749 390.579 674.362 390.937C674.976 391.289 675.689 391.465 676.501 391.465C677.03 391.465 677.507 391.392 677.933 391.244C678.365 391.09 678.737 390.863 679.05 390.562C679.362 390.255 679.604 389.875 679.774 389.42L681.717 389.965C681.513 390.625 681.169 391.204 680.686 391.704C680.203 392.198 679.607 392.585 678.896 392.863C678.186 393.136 677.388 393.272 676.501 393.272ZM689.925 393.272C688.834 393.272 687.871 392.997 687.036 392.446C686.2 391.889 685.547 391.105 685.075 390.093C684.604 389.076 684.368 387.875 684.368 386.488C684.368 385.113 684.604 383.92 685.075 382.909C685.547 381.897 686.203 381.116 687.044 380.565C687.885 380.014 688.857 379.738 689.959 379.738C690.811 379.738 691.484 379.88 691.979 380.164C692.479 380.443 692.859 380.761 693.121 381.119C693.388 381.471 693.595 381.761 693.743 381.988H693.913V375.545H695.925V393H693.982V390.988H693.743C693.595 391.227 693.385 391.528 693.112 391.892C692.839 392.25 692.45 392.571 691.945 392.855C691.439 393.133 690.766 393.272 689.925 393.272ZM690.197 391.465C691.004 391.465 691.686 391.255 692.243 390.835C692.8 390.409 693.223 389.821 693.513 389.071C693.803 388.315 693.947 387.443 693.947 386.454C693.947 385.477 693.805 384.622 693.521 383.889C693.237 383.15 692.817 382.576 692.26 382.167C691.703 381.752 691.016 381.545 690.197 381.545C689.345 381.545 688.635 381.764 688.067 382.201C687.504 382.633 687.081 383.221 686.797 383.965C686.518 384.704 686.379 385.534 686.379 386.454C686.379 387.386 686.521 388.232 686.805 388.994C687.095 389.75 687.521 390.352 688.084 390.801C688.652 391.244 689.357 391.465 690.197 391.465ZM702.888 390.613L702.751 391.534C702.655 392.181 702.507 392.875 702.308 393.613C702.115 394.352 701.913 395.048 701.703 395.701C701.493 396.355 701.32 396.875 701.183 397.261H699.649C699.723 396.897 699.82 396.417 699.939 395.821C700.058 395.224 700.178 394.556 700.297 393.818C700.422 393.085 700.524 392.335 700.604 391.568L700.706 390.613H702.888ZM714.66 397.909C714.319 397.909 714.015 397.88 713.748 397.823C713.481 397.772 713.296 397.721 713.194 397.67L713.705 395.897C714.194 396.022 714.626 396.068 715.001 396.034C715.376 396 715.708 395.832 715.998 395.531C716.293 395.235 716.563 394.755 716.808 394.09L717.183 393.068L712.342 379.909H714.523L718.137 390.34H718.273L721.887 379.909H724.069L718.512 394.909C718.262 395.585 717.952 396.144 717.583 396.588C717.214 397.036 716.785 397.369 716.296 397.585C715.813 397.801 715.268 397.909 714.66 397.909ZM731.744 393.272C730.482 393.272 729.394 392.994 728.479 392.437C727.57 391.875 726.869 391.09 726.374 390.085C725.886 389.073 725.641 387.897 725.641 386.556C725.641 385.215 725.886 384.034 726.374 383.011C726.869 381.982 727.556 381.181 728.437 380.607C729.323 380.028 730.357 379.738 731.539 379.738C732.221 379.738 732.894 379.852 733.559 380.079C734.224 380.306 734.829 380.676 735.374 381.187C735.92 381.693 736.354 382.363 736.678 383.198C737.002 384.034 737.164 385.062 737.164 386.284V387.136H727.073V385.397H735.119C735.119 384.659 734.971 384 734.675 383.42C734.386 382.84 733.971 382.383 733.431 382.048C732.897 381.713 732.266 381.545 731.539 381.545C730.738 381.545 730.045 381.744 729.46 382.142C728.88 382.534 728.434 383.045 728.121 383.676C727.809 384.306 727.653 384.982 727.653 385.704V386.863C727.653 387.852 727.823 388.69 728.164 389.377C728.511 390.059 728.991 390.579 729.604 390.937C730.218 391.289 730.931 391.465 731.744 391.465C732.272 391.465 732.749 391.392 733.175 391.244C733.607 391.09 733.979 390.863 734.292 390.562C734.604 390.255 734.846 389.875 735.016 389.42L736.96 389.965C736.755 390.625 736.411 391.204 735.928 391.704C735.445 392.198 734.849 392.585 734.138 392.863C733.428 393.136 732.63 393.272 731.744 393.272ZM745.917 379.909V381.613H739.133V379.909H745.917ZM741.11 376.772H743.121V389.25C743.121 389.818 743.204 390.244 743.369 390.528C743.539 390.806 743.755 390.994 744.016 391.09C744.283 391.181 744.565 391.227 744.86 391.227C745.082 391.227 745.263 391.215 745.406 391.193C745.548 391.164 745.661 391.142 745.746 391.125L746.156 392.931C746.019 392.982 745.829 393.034 745.585 393.085C745.34 393.142 745.031 393.17 744.656 393.17C744.087 393.17 743.531 393.048 742.985 392.803C742.445 392.559 741.996 392.187 741.638 391.687C741.286 391.187 741.11 390.556 741.11 389.795V376.772ZM751.602 375.545L751.431 388.09H749.454L749.283 375.545H751.602ZM750.442 393.136C750.022 393.136 749.661 392.985 749.36 392.684C749.059 392.383 748.908 392.022 748.908 391.602C748.908 391.181 749.059 390.821 749.36 390.519C749.661 390.218 750.022 390.068 750.442 390.068C750.863 390.068 751.224 390.218 751.525 390.519C751.826 390.821 751.977 391.181 751.977 391.602C751.977 391.88 751.906 392.136 751.763 392.369C751.627 392.602 751.442 392.789 751.21 392.931C750.982 393.068 750.727 393.136 750.442 393.136Z" fill="#FAFAFA"/>
</svg>
