<svg width="22" height="22" viewBox="0 0 22 22" fill="none" xmlns="http://www.w3.org/2000/svg">
<path d="M16.02 0.499512H5.98C2.95348 0.499512 0.5 2.95299 0.5 5.97951V16.0195C0.5 19.046 2.95348 21.4995 5.98 21.4995H16.02C19.0465 21.4995 21.5 19.046 21.5 16.0195V5.97951C21.5 2.95299 19.0465 0.499512 16.02 0.499512Z" stroke="#FAFAFA" stroke-linecap="round" stroke-linejoin="round"/>
<path d="M11 16.4995C14.0376 16.4995 16.5 14.0371 16.5 10.9995C16.5 7.96195 14.0376 5.49951 11 5.49951C7.96243 5.49951 5.5 7.96195 5.5 10.9995C5.5 14.0371 7.96243 16.4995 11 16.4995Z" stroke="#FAFAFA" stroke-linecap="round" stroke-linejoin="round"/>
<path d="M17 4.49951C17.2761 4.49951 17.5 4.27565 17.5 3.99951C17.5 3.72337 17.2761 3.49951 17 3.49951C16.7239 3.49951 16.5 3.72337 16.5 3.99951C16.5 4.27565 16.7239 4.49951 17 4.49951Z" stroke="#FAFAFA" stroke-linecap="round" stroke-linejoin="round"/>
</svg>
